<?xml version="1.0" encoding="utf-8" standalone="no"?>
<!DOCTYPE svg PUBLIC "-//W3C//DTD SVG 1.1//EN"
  "http://www.w3.org/Graphics/SVG/1.1/DTD/svg11.dtd">
<svg xmlns:xlink="http://www.w3.org/1999/xlink" width="424.46125pt" height="350.9725pt" viewBox="0 0 424.46125 350.9725" xmlns="http://www.w3.org/2000/svg" version="1.1">
 <metadata>
  <rdf:RDF xmlns:dc="http://purl.org/dc/elements/1.1/" xmlns:cc="http://creativecommons.org/ns#" xmlns:rdf="http://www.w3.org/1999/02/22-rdf-syntax-ns#">
   <cc:Work>
    <dc:type rdf:resource="http://purl.org/dc/dcmitype/StillImage"/>
    <dc:date>2026-06-22T13:12:20.476249</dc:date>
    <dc:format>image/svg+xml</dc:format>
    <dc:creator>
     <cc:Agent>
      <dc:title>Matplotlib v3.10.9, https://matplotlib.org/</dc:title>
     </cc:Agent>
    </dc:creator>
   </cc:Work>
  </rdf:RDF>
 </metadata>
 <defs>
  <style type="text/css">*{stroke-linejoin: round; stroke-linecap: butt}</style>
 </defs>
 <g id="figure_1">
  <g id="patch_1">
   <path d="M 0 350.9725 
L 424.46125 350.9725 
L 424.46125 0 
L 0 0 
z
" style="fill: #ffffff"/>
  </g>
  <g id="axes_1">
   <g id="patch_2">
    <path d="M 43.78125 313.41625 
L 417.26125 313.41625 
L 417.26125 22.61625 
L 43.78125 22.61625 
z
" style="fill: #ffffff"/>
   </g>
   <g id="matplotlib.axis_1">
    <g id="xtick_1">
     <g id="line2d_1">
      <defs>
       <path id="m7853296a4d" d="M 0 0 
L 0 3.5 
" style="stroke: #000000; stroke-width: 0.8"/>
      </defs>
      <g>
       <use xlink:href="#m7853296a4d" x="60.757614" y="313.41625" style="stroke: #000000; stroke-width: 0.8"/>
      </g>
     </g>
     <g id="text_1">
      <!-- 0.0 -->
      <g transform="translate(52.806051 328.014687) scale(0.1 -0.1)">
       <defs>
        <path id="DejaVuSans-30" d="M 2034 4250 
Q 1547 4250 1301 3770 
Q 1056 3291 1056 2328 
Q 1056 1369 1301 889 
Q 1547 409 2034 409 
Q 2525 409 2770 889 
Q 3016 1369 3016 2328 
Q 3016 3291 2770 3770 
Q 2525 4250 2034 4250 
z
M 2034 4750 
Q 2819 4750 3233 4129 
Q 3647 3509 3647 2328 
Q 3647 1150 3233 529 
Q 2819 -91 2034 -91 
Q 1250 -91 836 529 
Q 422 1150 422 2328 
Q 422 3509 836 4129 
Q 1250 4750 2034 4750 
z
" transform="scale(0.015625)"/>
        <path id="DejaVuSans-2e" d="M 684 794 
L 1344 794 
L 1344 0 
L 684 0 
L 684 794 
z
" transform="scale(0.015625)"/>
       </defs>
       <use xlink:href="#DejaVuSans-30"/>
       <use xlink:href="#DejaVuSans-2e" transform="translate(63.623047 0)"/>
       <use xlink:href="#DejaVuSans-30" transform="translate(95.410156 0)"/>
      </g>
     </g>
    </g>
    <g id="xtick_2">
     <g id="line2d_2">
      <g>
       <use xlink:href="#m7853296a4d" x="128.663068" y="313.41625" style="stroke: #000000; stroke-width: 0.8"/>
      </g>
     </g>
     <g id="text_2">
      <!-- 0.2 -->
      <g transform="translate(120.711506 328.014687) scale(0.1 -0.1)">
       <defs>
        <path id="DejaVuSans-32" d="M 1228 531 
L 3431 531 
L 3431 0 
L 469 0 
L 469 531 
Q 828 903 1448 1529 
Q 2069 2156 2228 2338 
Q 2531 2678 2651 2914 
Q 2772 3150 2772 3378 
Q 2772 3750 2511 3984 
Q 2250 4219 1831 4219 
Q 1534 4219 1204 4116 
Q 875 4013 500 3803 
L 500 4441 
Q 881 4594 1212 4672 
Q 1544 4750 1819 4750 
Q 2544 4750 2975 4387 
Q 3406 4025 3406 3419 
Q 3406 3131 3298 2873 
Q 3191 2616 2906 2266 
Q 2828 2175 2409 1742 
Q 1991 1309 1228 531 
z
" transform="scale(0.015625)"/>
       </defs>
       <use xlink:href="#DejaVuSans-30"/>
       <use xlink:href="#DejaVuSans-2e" transform="translate(63.623047 0)"/>
       <use xlink:href="#DejaVuSans-32" transform="translate(95.410156 0)"/>
      </g>
     </g>
    </g>
    <g id="xtick_3">
     <g id="line2d_3">
      <g>
       <use xlink:href="#m7853296a4d" x="196.568523" y="313.41625" style="stroke: #000000; stroke-width: 0.8"/>
      </g>
     </g>
     <g id="text_3">
      <!-- 0.4 -->
      <g transform="translate(188.61696 328.014687) scale(0.1 -0.1)">
       <defs>
        <path id="DejaVuSans-34" d="M 2419 4116 
L 825 1625 
L 2419 1625 
L 2419 4116 
z
M 2253 4666 
L 3047 4666 
L 3047 1625 
L 3713 1625 
L 3713 1100 
L 3047 1100 
L 3047 0 
L 2419 0 
L 2419 1100 
L 313 1100 
L 313 1709 
L 2253 4666 
z
" transform="scale(0.015625)"/>
       </defs>
       <use xlink:href="#DejaVuSans-30"/>
       <use xlink:href="#DejaVuSans-2e" transform="translate(63.623047 0)"/>
       <use xlink:href="#DejaVuSans-34" transform="translate(95.410156 0)"/>
      </g>
     </g>
    </g>
    <g id="xtick_4">
     <g id="line2d_4">
      <g>
       <use xlink:href="#m7853296a4d" x="264.473977" y="313.41625" style="stroke: #000000; stroke-width: 0.8"/>
      </g>
     </g>
     <g id="text_4">
      <!-- 0.6 -->
      <g transform="translate(256.522415 328.014687) scale(0.1 -0.1)">
       <defs>
        <path id="DejaVuSans-36" d="M 2113 2584 
Q 1688 2584 1439 2293 
Q 1191 2003 1191 1497 
Q 1191 994 1439 701 
Q 1688 409 2113 409 
Q 2538 409 2786 701 
Q 3034 994 3034 1497 
Q 3034 2003 2786 2293 
Q 2538 2584 2113 2584 
z
M 3366 4563 
L 3366 3988 
Q 3128 4100 2886 4159 
Q 2644 4219 2406 4219 
Q 1781 4219 1451 3797 
Q 1122 3375 1075 2522 
Q 1259 2794 1537 2939 
Q 1816 3084 2150 3084 
Q 2853 3084 3261 2657 
Q 3669 2231 3669 1497 
Q 3669 778 3244 343 
Q 2819 -91 2113 -91 
Q 1303 -91 875 529 
Q 447 1150 447 2328 
Q 447 3434 972 4092 
Q 1497 4750 2381 4750 
Q 2619 4750 2861 4703 
Q 3103 4656 3366 4563 
z
" transform="scale(0.015625)"/>
       </defs>
       <use xlink:href="#DejaVuSans-30"/>
       <use xlink:href="#DejaVuSans-2e" transform="translate(63.623047 0)"/>
       <use xlink:href="#DejaVuSans-36" transform="translate(95.410156 0)"/>
      </g>
     </g>
    </g>
    <g id="xtick_5">
     <g id="line2d_5">
      <g>
       <use xlink:href="#m7853296a4d" x="332.379432" y="313.41625" style="stroke: #000000; stroke-width: 0.8"/>
      </g>
     </g>
     <g id="text_5">
      <!-- 0.8 -->
      <g transform="translate(324.427869 328.014687) scale(0.1 -0.1)">
       <defs>
        <path id="DejaVuSans-38" d="M 2034 2216 
Q 1584 2216 1326 1975 
Q 1069 1734 1069 1313 
Q 1069 891 1326 650 
Q 1584 409 2034 409 
Q 2484 409 2743 651 
Q 3003 894 3003 1313 
Q 3003 1734 2745 1975 
Q 2488 2216 2034 2216 
z
M 1403 2484 
Q 997 2584 770 2862 
Q 544 3141 544 3541 
Q 544 4100 942 4425 
Q 1341 4750 2034 4750 
Q 2731 4750 3128 4425 
Q 3525 4100 3525 3541 
Q 3525 3141 3298 2862 
Q 3072 2584 2669 2484 
Q 3125 2378 3379 2068 
Q 3634 1759 3634 1313 
Q 3634 634 3220 271 
Q 2806 -91 2034 -91 
Q 1263 -91 848 271 
Q 434 634 434 1313 
Q 434 1759 690 2068 
Q 947 2378 1403 2484 
z
M 1172 3481 
Q 1172 3119 1398 2916 
Q 1625 2713 2034 2713 
Q 2441 2713 2670 2916 
Q 2900 3119 2900 3481 
Q 2900 3844 2670 4047 
Q 2441 4250 2034 4250 
Q 1625 4250 1398 4047 
Q 1172 3844 1172 3481 
z
" transform="scale(0.015625)"/>
       </defs>
       <use xlink:href="#DejaVuSans-30"/>
       <use xlink:href="#DejaVuSans-2e" transform="translate(63.623047 0)"/>
       <use xlink:href="#DejaVuSans-38" transform="translate(95.410156 0)"/>
      </g>
     </g>
    </g>
    <g id="xtick_6">
     <g id="line2d_6">
      <g>
       <use xlink:href="#m7853296a4d" x="400.284886" y="313.41625" style="stroke: #000000; stroke-width: 0.8"/>
      </g>
     </g>
     <g id="text_6">
      <!-- 1.0 -->
      <g transform="translate(392.333324 328.014687) scale(0.1 -0.1)">
       <defs>
        <path id="DejaVuSans-31" d="M 794 531 
L 1825 531 
L 1825 4091 
L 703 3866 
L 703 4441 
L 1819 4666 
L 2450 4666 
L 2450 531 
L 3481 531 
L 3481 0 
L 794 0 
L 794 531 
z
" transform="scale(0.015625)"/>
       </defs>
       <use xlink:href="#DejaVuSans-31"/>
       <use xlink:href="#DejaVuSans-2e" transform="translate(63.623047 0)"/>
       <use xlink:href="#DejaVuSans-30" transform="translate(95.410156 0)"/>
      </g>
     </g>
    </g>
    <g id="text_7">
     <!-- Taxa de Falsos Positivos (1 − Especificidade) -->
     <g transform="translate(119.216563 341.692812) scale(0.1 -0.1)">
      <defs>
       <path id="DejaVuSans-54" d="M -19 4666 
L 3928 4666 
L 3928 4134 
L 2272 4134 
L 2272 0 
L 1638 0 
L 1638 4134 
L -19 4134 
L -19 4666 
z
" transform="scale(0.015625)"/>
       <path id="DejaVuSans-61" d="M 2194 1759 
Q 1497 1759 1228 1600 
Q 959 1441 959 1056 
Q 959 750 1161 570 
Q 1363 391 1709 391 
Q 2188 391 2477 730 
Q 2766 1069 2766 1631 
L 2766 1759 
L 2194 1759 
z
M 3341 1997 
L 3341 0 
L 2766 0 
L 2766 531 
Q 2569 213 2275 61 
Q 1981 -91 1556 -91 
Q 1019 -91 701 211 
Q 384 513 384 1019 
Q 384 1609 779 1909 
Q 1175 2209 1959 2209 
L 2766 2209 
L 2766 2266 
Q 2766 2663 2505 2880 
Q 2244 3097 1772 3097 
Q 1472 3097 1187 3025 
Q 903 2953 641 2809 
L 641 3341 
Q 956 3463 1253 3523 
Q 1550 3584 1831 3584 
Q 2591 3584 2966 3190 
Q 3341 2797 3341 1997 
z
" transform="scale(0.015625)"/>
       <path id="DejaVuSans-78" d="M 3513 3500 
L 2247 1797 
L 3578 0 
L 2900 0 
L 1881 1375 
L 863 0 
L 184 0 
L 1544 1831 
L 300 3500 
L 978 3500 
L 1906 2253 
L 2834 3500 
L 3513 3500 
z
" transform="scale(0.015625)"/>
       <path id="DejaVuSans-20" transform="scale(0.015625)"/>
       <path id="DejaVuSans-64" d="M 2906 2969 
L 2906 4863 
L 3481 4863 
L 3481 0 
L 2906 0 
L 2906 525 
Q 2725 213 2448 61 
Q 2172 -91 1784 -91 
Q 1150 -91 751 415 
Q 353 922 353 1747 
Q 353 2572 751 3078 
Q 1150 3584 1784 3584 
Q 2172 3584 2448 3432 
Q 2725 3281 2906 2969 
z
M 947 1747 
Q 947 1113 1208 752 
Q 1469 391 1925 391 
Q 2381 391 2643 752 
Q 2906 1113 2906 1747 
Q 2906 2381 2643 2742 
Q 2381 3103 1925 3103 
Q 1469 3103 1208 2742 
Q 947 2381 947 1747 
z
" transform="scale(0.015625)"/>
       <path id="DejaVuSans-65" d="M 3597 1894 
L 3597 1613 
L 953 1613 
Q 991 1019 1311 708 
Q 1631 397 2203 397 
Q 2534 397 2845 478 
Q 3156 559 3463 722 
L 3463 178 
Q 3153 47 2828 -22 
Q 2503 -91 2169 -91 
Q 1331 -91 842 396 
Q 353 884 353 1716 
Q 353 2575 817 3079 
Q 1281 3584 2069 3584 
Q 2775 3584 3186 3129 
Q 3597 2675 3597 1894 
z
M 3022 2063 
Q 3016 2534 2758 2815 
Q 2500 3097 2075 3097 
Q 1594 3097 1305 2825 
Q 1016 2553 972 2059 
L 3022 2063 
z
" transform="scale(0.015625)"/>
       <path id="DejaVuSans-46" d="M 628 4666 
L 3309 4666 
L 3309 4134 
L 1259 4134 
L 1259 2759 
L 3109 2759 
L 3109 2228 
L 1259 2228 
L 1259 0 
L 628 0 
L 628 4666 
z
" transform="scale(0.015625)"/>
       <path id="DejaVuSans-6c" d="M 603 4863 
L 1178 4863 
L 1178 0 
L 603 0 
L 603 4863 
z
" transform="scale(0.015625)"/>
       <path id="DejaVuSans-73" d="M 2834 3397 
L 2834 2853 
Q 2591 2978 2328 3040 
Q 2066 3103 1784 3103 
Q 1356 3103 1142 2972 
Q 928 2841 928 2578 
Q 928 2378 1081 2264 
Q 1234 2150 1697 2047 
L 1894 2003 
Q 2506 1872 2764 1633 
Q 3022 1394 3022 966 
Q 3022 478 2636 193 
Q 2250 -91 1575 -91 
Q 1294 -91 989 -36 
Q 684 19 347 128 
L 347 722 
Q 666 556 975 473 
Q 1284 391 1588 391 
Q 1994 391 2212 530 
Q 2431 669 2431 922 
Q 2431 1156 2273 1281 
Q 2116 1406 1581 1522 
L 1381 1569 
Q 847 1681 609 1914 
Q 372 2147 372 2553 
Q 372 3047 722 3315 
Q 1072 3584 1716 3584 
Q 2034 3584 2315 3537 
Q 2597 3491 2834 3397 
z
" transform="scale(0.015625)"/>
       <path id="DejaVuSans-6f" d="M 1959 3097 
Q 1497 3097 1228 2736 
Q 959 2375 959 1747 
Q 959 1119 1226 758 
Q 1494 397 1959 397 
Q 2419 397 2687 759 
Q 2956 1122 2956 1747 
Q 2956 2369 2687 2733 
Q 2419 3097 1959 3097 
z
M 1959 3584 
Q 2709 3584 3137 3096 
Q 3566 2609 3566 1747 
Q 3566 888 3137 398 
Q 2709 -91 1959 -91 
Q 1206 -91 779 398 
Q 353 888 353 1747 
Q 353 2609 779 3096 
Q 1206 3584 1959 3584 
z
" transform="scale(0.015625)"/>
       <path id="DejaVuSans-50" d="M 1259 4147 
L 1259 2394 
L 2053 2394 
Q 2494 2394 2734 2622 
Q 2975 2850 2975 3272 
Q 2975 3691 2734 3919 
Q 2494 4147 2053 4147 
L 1259 4147 
z
M 628 4666 
L 2053 4666 
Q 2838 4666 3239 4311 
Q 3641 3956 3641 3272 
Q 3641 2581 3239 2228 
Q 2838 1875 2053 1875 
L 1259 1875 
L 1259 0 
L 628 0 
L 628 4666 
z
" transform="scale(0.015625)"/>
       <path id="DejaVuSans-69" d="M 603 3500 
L 1178 3500 
L 1178 0 
L 603 0 
L 603 3500 
z
M 603 4863 
L 1178 4863 
L 1178 4134 
L 603 4134 
L 603 4863 
z
" transform="scale(0.015625)"/>
       <path id="DejaVuSans-74" d="M 1172 4494 
L 1172 3500 
L 2356 3500 
L 2356 3053 
L 1172 3053 
L 1172 1153 
Q 1172 725 1289 603 
Q 1406 481 1766 481 
L 2356 481 
L 2356 0 
L 1766 0 
Q 1100 0 847 248 
Q 594 497 594 1153 
L 594 3053 
L 172 3053 
L 172 3500 
L 594 3500 
L 594 4494 
L 1172 4494 
z
" transform="scale(0.015625)"/>
       <path id="DejaVuSans-76" d="M 191 3500 
L 800 3500 
L 1894 563 
L 2988 3500 
L 3597 3500 
L 2284 0 
L 1503 0 
L 191 3500 
z
" transform="scale(0.015625)"/>
       <path id="DejaVuSans-28" d="M 1984 4856 
Q 1566 4138 1362 3434 
Q 1159 2731 1159 2009 
Q 1159 1288 1364 580 
Q 1569 -128 1984 -844 
L 1484 -844 
Q 1016 -109 783 600 
Q 550 1309 550 2009 
Q 550 2706 781 3412 
Q 1013 4119 1484 4856 
L 1984 4856 
z
" transform="scale(0.015625)"/>
       <path id="DejaVuSans-2212" d="M 678 2272 
L 4684 2272 
L 4684 1741 
L 678 1741 
L 678 2272 
z
" transform="scale(0.015625)"/>
       <path id="DejaVuSans-45" d="M 628 4666 
L 3578 4666 
L 3578 4134 
L 1259 4134 
L 1259 2753 
L 3481 2753 
L 3481 2222 
L 1259 2222 
L 1259 531 
L 3634 531 
L 3634 0 
L 628 0 
L 628 4666 
z
" transform="scale(0.015625)"/>
       <path id="DejaVuSans-70" d="M 1159 525 
L 1159 -1331 
L 581 -1331 
L 581 3500 
L 1159 3500 
L 1159 2969 
Q 1341 3281 1617 3432 
Q 1894 3584 2278 3584 
Q 2916 3584 3314 3078 
Q 3713 2572 3713 1747 
Q 3713 922 3314 415 
Q 2916 -91 2278 -91 
Q 1894 -91 1617 61 
Q 1341 213 1159 525 
z
M 3116 1747 
Q 3116 2381 2855 2742 
Q 2594 3103 2138 3103 
Q 1681 3103 1420 2742 
Q 1159 2381 1159 1747 
Q 1159 1113 1420 752 
Q 1681 391 2138 391 
Q 2594 391 2855 752 
Q 3116 1113 3116 1747 
z
" transform="scale(0.015625)"/>
       <path id="DejaVuSans-63" d="M 3122 3366 
L 3122 2828 
Q 2878 2963 2633 3030 
Q 2388 3097 2138 3097 
Q 1578 3097 1268 2742 
Q 959 2388 959 1747 
Q 959 1106 1268 751 
Q 1578 397 2138 397 
Q 2388 397 2633 464 
Q 2878 531 3122 666 
L 3122 134 
Q 2881 22 2623 -34 
Q 2366 -91 2075 -91 
Q 1284 -91 818 406 
Q 353 903 353 1747 
Q 353 2603 823 3093 
Q 1294 3584 2113 3584 
Q 2378 3584 2631 3529 
Q 2884 3475 3122 3366 
z
" transform="scale(0.015625)"/>
       <path id="DejaVuSans-66" d="M 2375 4863 
L 2375 4384 
L 1825 4384 
Q 1516 4384 1395 4259 
Q 1275 4134 1275 3809 
L 1275 3500 
L 2222 3500 
L 2222 3053 
L 1275 3053 
L 1275 0 
L 697 0 
L 697 3053 
L 147 3053 
L 147 3500 
L 697 3500 
L 697 3744 
Q 697 4328 969 4595 
Q 1241 4863 1831 4863 
L 2375 4863 
z
" transform="scale(0.015625)"/>
       <path id="DejaVuSans-29" d="M 513 4856 
L 1013 4856 
Q 1481 4119 1714 3412 
Q 1947 2706 1947 2009 
Q 1947 1309 1714 600 
Q 1481 -109 1013 -844 
L 513 -844 
Q 928 -128 1133 580 
Q 1338 1288 1338 2009 
Q 1338 2731 1133 3434 
Q 928 4138 513 4856 
z
" transform="scale(0.015625)"/>
      </defs>
      <use xlink:href="#DejaVuSans-54"/>
      <use xlink:href="#DejaVuSans-61" transform="translate(44.583984 0)"/>
      <use xlink:href="#DejaVuSans-78" transform="translate(105.863281 0)"/>
      <use xlink:href="#DejaVuSans-61" transform="translate(165.042969 0)"/>
      <use xlink:href="#DejaVuSans-20" transform="translate(226.322266 0)"/>
      <use xlink:href="#DejaVuSans-64" transform="translate(258.109375 0)"/>
      <use xlink:href="#DejaVuSans-65" transform="translate(321.585938 0)"/>
      <use xlink:href="#DejaVuSans-20" transform="translate(383.109375 0)"/>
      <use xlink:href="#DejaVuSans-46" transform="translate(414.896484 0)"/>
      <use xlink:href="#DejaVuSans-61" transform="translate(463.291016 0)"/>
      <use xlink:href="#DejaVuSans-6c" transform="translate(524.570312 0)"/>
      <use xlink:href="#DejaVuSans-73" transform="translate(552.353516 0)"/>
      <use xlink:href="#DejaVuSans-6f" transform="translate(604.453125 0)"/>
      <use xlink:href="#DejaVuSans-73" transform="translate(665.634766 0)"/>
      <use xlink:href="#DejaVuSans-20" transform="translate(717.734375 0)"/>
      <use xlink:href="#DejaVuSans-50" transform="translate(749.521484 0)"/>
      <use xlink:href="#DejaVuSans-6f" transform="translate(806.199219 0)"/>
      <use xlink:href="#DejaVuSans-73" transform="translate(867.380859 0)"/>
      <use xlink:href="#DejaVuSans-69" transform="translate(919.480469 0)"/>
      <use xlink:href="#DejaVuSans-74" transform="translate(947.263672 0)"/>
      <use xlink:href="#DejaVuSans-69" transform="translate(986.472656 0)"/>
      <use xlink:href="#DejaVuSans-76" transform="translate(1014.255859 0)"/>
      <use xlink:href="#DejaVuSans-6f" transform="translate(1073.435547 0)"/>
      <use xlink:href="#DejaVuSans-73" transform="translate(1134.617188 0)"/>
      <use xlink:href="#DejaVuSans-20" transform="translate(1186.716797 0)"/>
      <use xlink:href="#DejaVuSans-28" transform="translate(1218.503906 0)"/>
      <use xlink:href="#DejaVuSans-31" transform="translate(1257.517578 0)"/>
      <use xlink:href="#DejaVuSans-20" transform="translate(1321.140625 0)"/>
      <use xlink:href="#DejaVuSans-2212" transform="translate(1352.927734 0)"/>
      <use xlink:href="#DejaVuSans-20" transform="translate(1436.716797 0)"/>
      <use xlink:href="#DejaVuSans-45" transform="translate(1468.503906 0)"/>
      <use xlink:href="#DejaVuSans-73" transform="translate(1531.6875 0)"/>
      <use xlink:href="#DejaVuSans-70" transform="translate(1583.787109 0)"/>
      <use xlink:href="#DejaVuSans-65" transform="translate(1647.263672 0)"/>
      <use xlink:href="#DejaVuSans-63" transform="translate(1708.787109 0)"/>
      <use xlink:href="#DejaVuSans-69" transform="translate(1763.767578 0)"/>
      <use xlink:href="#DejaVuSans-66" transform="translate(1791.550781 0)"/>
      <use xlink:href="#DejaVuSans-69" transform="translate(1826.755859 0)"/>
      <use xlink:href="#DejaVuSans-63" transform="translate(1854.539062 0)"/>
      <use xlink:href="#DejaVuSans-69" transform="translate(1909.519531 0)"/>
      <use xlink:href="#DejaVuSans-64" transform="translate(1937.302734 0)"/>
      <use xlink:href="#DejaVuSans-61" transform="translate(2000.779297 0)"/>
      <use xlink:href="#DejaVuSans-64" transform="translate(2062.058594 0)"/>
      <use xlink:href="#DejaVuSans-65" transform="translate(2125.535156 0)"/>
      <use xlink:href="#DejaVuSans-29" transform="translate(2187.058594 0)"/>
     </g>
    </g>
   </g>
   <g id="matplotlib.axis_2">
    <g id="ytick_1">
     <g id="line2d_7">
      <defs>
       <path id="mdfbd3c80f6" d="M 0 0 
L -3.5 0 
" style="stroke: #000000; stroke-width: 0.8"/>
      </defs>
      <g>
       <use xlink:href="#mdfbd3c80f6" x="43.78125" y="300.198068" style="stroke: #000000; stroke-width: 0.8"/>
      </g>
     </g>
     <g id="text_8">
      <!-- 0.0 -->
      <g transform="translate(20.878125 303.997287) scale(0.1 -0.1)">
       <use xlink:href="#DejaVuSans-30"/>
       <use xlink:href="#DejaVuSans-2e" transform="translate(63.623047 0)"/>
       <use xlink:href="#DejaVuSans-30" transform="translate(95.410156 0)"/>
      </g>
     </g>
    </g>
    <g id="ytick_2">
     <g id="line2d_8">
      <g>
       <use xlink:href="#mdfbd3c80f6" x="43.78125" y="247.325341" style="stroke: #000000; stroke-width: 0.8"/>
      </g>
     </g>
     <g id="text_9">
      <!-- 0.2 -->
      <g transform="translate(20.878125 251.12456) scale(0.1 -0.1)">
       <use xlink:href="#DejaVuSans-30"/>
       <use xlink:href="#DejaVuSans-2e" transform="translate(63.623047 0)"/>
       <use xlink:href="#DejaVuSans-32" transform="translate(95.410156 0)"/>
      </g>
     </g>
    </g>
    <g id="ytick_3">
     <g id="line2d_9">
      <g>
       <use xlink:href="#mdfbd3c80f6" x="43.78125" y="194.452614" style="stroke: #000000; stroke-width: 0.8"/>
      </g>
     </g>
     <g id="text_10">
      <!-- 0.4 -->
      <g transform="translate(20.878125 198.251832) scale(0.1 -0.1)">
       <use xlink:href="#DejaVuSans-30"/>
       <use xlink:href="#DejaVuSans-2e" transform="translate(63.623047 0)"/>
       <use xlink:href="#DejaVuSans-34" transform="translate(95.410156 0)"/>
      </g>
     </g>
    </g>
    <g id="ytick_4">
     <g id="line2d_10">
      <g>
       <use xlink:href="#mdfbd3c80f6" x="43.78125" y="141.579886" style="stroke: #000000; stroke-width: 0.8"/>
      </g>
     </g>
     <g id="text_11">
      <!-- 0.6 -->
      <g transform="translate(20.878125 145.379105) scale(0.1 -0.1)">
       <use xlink:href="#DejaVuSans-30"/>
       <use xlink:href="#DejaVuSans-2e" transform="translate(63.623047 0)"/>
       <use xlink:href="#DejaVuSans-36" transform="translate(95.410156 0)"/>
      </g>
     </g>
    </g>
    <g id="ytick_5">
     <g id="line2d_11">
      <g>
       <use xlink:href="#mdfbd3c80f6" x="43.78125" y="88.707159" style="stroke: #000000; stroke-width: 0.8"/>
      </g>
     </g>
     <g id="text_12">
      <!-- 0.8 -->
      <g transform="translate(20.878125 92.506378) scale(0.1 -0.1)">
       <use xlink:href="#DejaVuSans-30"/>
       <use xlink:href="#DejaVuSans-2e" transform="translate(63.623047 0)"/>
       <use xlink:href="#DejaVuSans-38" transform="translate(95.410156 0)"/>
      </g>
     </g>
    </g>
    <g id="ytick_6">
     <g id="line2d_12">
      <g>
       <use xlink:href="#mdfbd3c80f6" x="43.78125" y="35.834432" style="stroke: #000000; stroke-width: 0.8"/>
      </g>
     </g>
     <g id="text_13">
      <!-- 1.0 -->
      <g transform="translate(20.878125 39.633651) scale(0.1 -0.1)">
       <use xlink:href="#DejaVuSans-31"/>
       <use xlink:href="#DejaVuSans-2e" transform="translate(63.623047 0)"/>
       <use xlink:href="#DejaVuSans-30" transform="translate(95.410156 0)"/>
      </g>
     </g>
    </g>
    <g id="text_14">
     <!-- Taxa de Verdadeiros Positivos (Recall) -->
     <g transform="translate(14.798438 262.180313) rotate(-90) scale(0.1 -0.1)">
      <defs>
       <path id="DejaVuSans-56" d="M 1831 0 
L 50 4666 
L 709 4666 
L 2188 738 
L 3669 4666 
L 4325 4666 
L 2547 0 
L 1831 0 
z
" transform="scale(0.015625)"/>
       <path id="DejaVuSans-72" d="M 2631 2963 
Q 2534 3019 2420 3045 
Q 2306 3072 2169 3072 
Q 1681 3072 1420 2755 
Q 1159 2438 1159 1844 
L 1159 0 
L 581 0 
L 581 3500 
L 1159 3500 
L 1159 2956 
Q 1341 3275 1631 3429 
Q 1922 3584 2338 3584 
Q 2397 3584 2469 3576 
Q 2541 3569 2628 3553 
L 2631 2963 
z
" transform="scale(0.015625)"/>
       <path id="DejaVuSans-52" d="M 2841 2188 
Q 3044 2119 3236 1894 
Q 3428 1669 3622 1275 
L 4263 0 
L 3584 0 
L 2988 1197 
Q 2756 1666 2539 1819 
Q 2322 1972 1947 1972 
L 1259 1972 
L 1259 0 
L 628 0 
L 628 4666 
L 2053 4666 
Q 2853 4666 3247 4331 
Q 3641 3997 3641 3322 
Q 3641 2881 3436 2590 
Q 3231 2300 2841 2188 
z
M 1259 4147 
L 1259 2491 
L 2053 2491 
Q 2509 2491 2742 2702 
Q 2975 2913 2975 3322 
Q 2975 3731 2742 3939 
Q 2509 4147 2053 4147 
L 1259 4147 
z
" transform="scale(0.015625)"/>
      </defs>
      <use xlink:href="#DejaVuSans-54"/>
      <use xlink:href="#DejaVuSans-61" transform="translate(44.583984 0)"/>
      <use xlink:href="#DejaVuSans-78" transform="translate(105.863281 0)"/>
      <use xlink:href="#DejaVuSans-61" transform="translate(165.042969 0)"/>
      <use xlink:href="#DejaVuSans-20" transform="translate(226.322266 0)"/>
      <use xlink:href="#DejaVuSans-64" transform="translate(258.109375 0)"/>
      <use xlink:href="#DejaVuSans-65" transform="translate(321.585938 0)"/>
      <use xlink:href="#DejaVuSans-20" transform="translate(383.109375 0)"/>
      <use xlink:href="#DejaVuSans-56" transform="translate(414.896484 0)"/>
      <use xlink:href="#DejaVuSans-65" transform="translate(475.554688 0)"/>
      <use xlink:href="#DejaVuSans-72" transform="translate(537.078125 0)"/>
      <use xlink:href="#DejaVuSans-64" transform="translate(576.441406 0)"/>
      <use xlink:href="#DejaVuSans-61" transform="translate(639.917969 0)"/>
      <use xlink:href="#DejaVuSans-64" transform="translate(701.197266 0)"/>
      <use xlink:href="#DejaVuSans-65" transform="translate(764.673828 0)"/>
      <use xlink:href="#DejaVuSans-69" transform="translate(826.197266 0)"/>
      <use xlink:href="#DejaVuSans-72" transform="translate(853.980469 0)"/>
      <use xlink:href="#DejaVuSans-6f" transform="translate(892.84375 0)"/>
      <use xlink:href="#DejaVuSans-73" transform="translate(954.025391 0)"/>
      <use xlink:href="#DejaVuSans-20" transform="translate(1006.125 0)"/>
      <use xlink:href="#DejaVuSans-50" transform="translate(1037.912109 0)"/>
      <use xlink:href="#DejaVuSans-6f" transform="translate(1094.589844 0)"/>
      <use xlink:href="#DejaVuSans-73" transform="translate(1155.771484 0)"/>
      <use xlink:href="#DejaVuSans-69" transform="translate(1207.871094 0)"/>
      <use xlink:href="#DejaVuSans-74" transform="translate(1235.654297 0)"/>
      <use xlink:href="#DejaVuSans-69" transform="translate(1274.863281 0)"/>
      <use xlink:href="#DejaVuSans-76" transform="translate(1302.646484 0)"/>
      <use xlink:href="#DejaVuSans-6f" transform="translate(1361.826172 0)"/>
      <use xlink:href="#DejaVuSans-73" transform="translate(1423.007812 0)"/>
      <use xlink:href="#DejaVuSans-20" transform="translate(1475.107422 0)"/>
      <use xlink:href="#DejaVuSans-28" transform="translate(1506.894531 0)"/>
      <use xlink:href="#DejaVuSans-52" transform="translate(1545.908203 0)"/>
      <use xlink:href="#DejaVuSans-65" transform="translate(1610.890625 0)"/>
      <use xlink:href="#DejaVuSans-63" transform="translate(1672.414062 0)"/>
      <use xlink:href="#DejaVuSans-61" transform="translate(1727.394531 0)"/>
      <use xlink:href="#DejaVuSans-6c" transform="translate(1788.673828 0)"/>
      <use xlink:href="#DejaVuSans-6c" transform="translate(1816.457031 0)"/>
      <use xlink:href="#DejaVuSans-29" transform="translate(1844.240234 0)"/>
     </g>
    </g>
   </g>
   <g id="line2d_13">
    <path d="M 60.757614 300.198068 
L 60.864934 293.993352 
L 60.876433 293.917424 
L 60.983753 290.752188 
L 60.987586 290.752188 
L 60.987586 290.659651 
L 61.094906 287.138504 
L 61.110238 287.069695 
L 61.217558 284.654245 
L 61.221391 284.654245 
L 61.328712 282.950617 
L 61.336377 282.934008 
L 61.336377 282.886553 
L 61.443698 281.491382 
L 61.459029 281.448672 
L 61.56635 279.415234 
L 61.577848 279.332188 
L 61.685169 277.993962 
L 61.696667 277.910916 
L 61.803988 276.076788 
L 61.815486 276.022214 
L 61.922807 275.030409 
L 61.938138 274.9877 
L 62.045459 273.855902 
L 62.053124 273.772856 
L 62.160445 272.942397 
L 62.187275 272.833251 
L 62.294595 272.045501 
L 62.306094 271.948219 
L 62.413414 271.122505 
L 62.444077 271.027596 
L 62.551398 270.028672 
L 62.562896 269.952744 
L 62.670217 268.804338 
L 62.681715 268.695192 
L 62.789036 267.653558 
L 62.800534 267.598985 
L 62.907855 266.742426 
L 62.919353 266.657007 
L 63.026674 265.667575 
L 63.06117 265.570292 
L 63.16849 264.917789 
L 63.179989 264.83237 
L 63.287309 264.229694 
L 63.306473 264.122921 
L 63.413794 263.382625 
L 63.429125 263.332798 
L 63.536446 262.575894 
L 63.55561 262.466748 
L 63.66293 261.773907 
L 63.682095 261.67188 
L 63.789415 261.005139 
L 63.816245 260.900739 
L 63.923566 260.12248 
L 63.935064 260.044179 
L 64.038552 259.519804 
L 64.065382 259.410658 
L 64.172702 258.777136 
L 64.188034 258.672735 
L 64.295354 258.034468 
L 64.318351 257.899222 
L 64.425672 257.329764 
L 64.43717 257.222991 
L 64.544491 256.722343 
L 64.567488 256.62506 
L 64.567488 256.613197 
L 64.674809 256.005775 
L 64.697806 255.917984 
L 64.805126 255.315308 
L 64.816625 255.215652 
L 64.923945 254.475357 
L 64.954608 254.332993 
L 65.054263 253.9842 
L 65.084926 253.882172 
L 65.192246 253.443215 
L 65.215243 253.334069 
L 65.322564 252.515474 
L 65.345561 252.437173 
L 65.452881 252.017198 
L 65.487377 251.922288 
L 65.594698 251.393167 
L 65.602363 251.295885 
L 65.709684 250.600672 
L 65.74418 250.498644 
L 65.8515 250.090533 
L 65.897495 249.995623 
L 66.004815 249.452266 
L 66.012481 249.376338 
L 66.119801 248.825862 
L 66.150464 248.745189 
L 66.257785 247.952694 
L 66.29228 247.857784 
L 66.399601 247.454418 
L 66.414932 247.368999 
L 66.522253 246.861233 
L 66.564414 246.756832 
L 66.671735 246.194493 
L 66.717729 246.094838 
L 66.82505 245.731808 
L 66.859545 245.622662 
L 66.966866 245.292851 
L 66.989863 245.202687 
L 67.097183 244.709157 
L 67.127846 244.609502 
L 67.235167 244.293928 
L 67.258164 244.184781 
L 67.365484 243.69837 
L 67.396147 243.596342 
L 67.503468 243.117048 
L 67.530298 243.010275 
L 67.637618 242.457426 
L 67.668281 242.34828 
L 67.775602 241.895087 
L 67.802432 241.790686 
L 67.909752 241.197501 
L 67.936582 241.102591 
L 67.936582 241.088355 
L 67.997908 240.943618 
L 68.105229 240.196205 
L 68.128226 240.12265 
L 68.227881 239.588783 
L 68.277708 239.48201 
L 68.377363 239.031189 
L 68.404193 238.955261 
L 68.511513 238.639687 
L 68.549842 238.542404 
L 68.657162 238.089211 
L 68.714655 237.980065 
L 68.821976 237.541108 
L 68.829641 237.477044 
L 68.936962 236.943177 
L 68.975291 236.871995 
L 68.975291 236.860131 
L 69.082611 236.473375 
L 69.113274 236.371347 
L 69.220594 235.946626 
L 69.28192 235.854089 
L 69.389241 235.362932 
L 69.408405 235.268022 
L 69.515725 234.867029 
L 69.538723 234.807711 
L 69.538723 234.800593 
L 69.646043 234.333163 
L 69.66904 234.247744 
L 69.776361 233.820651 
L 69.818522 233.71625 
L 69.925843 233.331866 
L 69.94884 233.267802 
L 70.05616 232.914264 
L 70.079158 232.854945 
L 70.079158 232.821727 
L 70.186478 232.342433 
L 70.209475 232.242778 
L 70.316796 231.953304 
L 70.33596 231.844158 
L 70.44328 231.507229 
L 70.523771 231.329273 
L 70.627258 230.956753 
L 70.677086 230.866589 
L 70.784406 230.479832 
L 70.80357 230.377804 
L 70.910891 230.007657 
L 70.945387 229.917492 
L 71.052707 229.5687 
L 71.079537 229.514127 
L 71.079537 229.469044 
L 71.186857 229.096524 
L 71.21752 228.994496 
L 71.324841 228.517575 
L 71.355504 228.408429 
L 71.462824 227.986082 
L 71.501153 227.907781 
L 71.501153 227.881681 
L 71.608473 227.504415 
L 71.654468 227.400015 
L 71.761788 226.968176 
L 71.792451 226.878012 
L 71.899772 226.325163 
L 71.926602 226.280081 
L 71.926602 226.220763 
L 72.033922 225.848242 
L 72.072251 225.746214 
L 72.179571 225.423522 
L 72.214067 225.316748 
L 72.321388 224.887282 
L 72.344385 224.792373 
L 72.451705 224.317825 
L 72.47087 224.208679 
L 72.57819 223.883613 
L 72.608853 223.788704 
L 72.716173 223.382965 
L 72.739171 223.288055 
L 72.846491 222.896553 
L 72.873321 222.822998 
L 72.980641 222.303368 
L 73.01897 222.208458 
L 73.126291 221.812211 
L 73.187617 221.710183 
L 73.294937 221.368508 
L 73.360096 221.259362 
L 73.467416 220.953279 
L 73.494246 220.86786 
L 73.494246 220.855996 
L 73.601567 220.317384 
L 73.647561 220.210611 
L 73.754882 219.852327 
L 73.789377 219.755045 
L 73.896698 219.356424 
L 73.954191 219.204569 
L 74.057678 218.836794 
L 74.12667 218.741884 
L 74.23399 218.336146 
L 74.268486 218.241236 
L 74.268486 218.236491 
L 74.375807 217.918543 
L 74.4333 217.826006 
L 74.54062 217.581614 
L 74.563617 217.500941 
L 74.670938 217.218585 
L 74.728431 217.121303 
L 74.728431 217.116557 
L 74.835751 216.779628 
L 74.877913 216.672855 
L 74.977568 216.364398 
L 75.000565 216.267116 
L 75.107885 215.870868 
L 75.157713 215.799686 
L 75.2612 215.59563 
L 75.280364 215.495975 
L 75.387685 215.002445 
L 75.426014 214.895672 
L 75.533334 214.511288 
L 75.56783 214.402142 
L 75.67515 213.960812 
L 75.717312 213.858784 
L 75.820799 213.609646 
L 75.870627 213.524228 
L 75.977947 213.170689 
L 76.020109 213.066289 
L 76.123596 212.767324 
L 76.173424 212.681905 
L 76.280744 212.423276 
L 76.334404 212.330739 
L 76.441725 211.972455 
L 76.487719 211.868055 
L 76.591207 211.645017 
L 76.633368 211.538244 
L 76.740689 211.270124 
L 76.775184 211.168096 
L 76.878672 210.895231 
L 76.882505 210.895231 
L 76.928499 210.752867 
L 77.03582 210.468138 
L 77.074148 210.373228 
L 77.181469 210.074263 
L 77.238962 209.984099 
L 77.346282 209.632933 
L 77.376945 209.528533 
L 77.484266 209.277022 
L 77.526427 209.167876 
L 77.633748 208.93772 
L 77.664411 208.828574 
L 77.771731 208.600791 
L 77.81006 208.494018 
L 77.91738 208.180816 
L 77.948043 208.07167 
L 78.055364 207.760841 
L 78.109024 207.665931 
L 78.216344 207.50933 
L 78.262339 207.412048 
L 78.365826 207.08461 
L 78.438651 206.982582 
L 78.545971 206.733444 
L 78.603464 206.640907 
L 78.710785 206.384651 
L 78.772111 206.24466 
L 78.879431 205.848412 
L 78.925425 205.741639 
L 79.028913 205.487755 
L 79.094072 205.383355 
L 79.197559 205.108117 
L 79.220557 205.01558 
L 79.327877 204.718988 
L 79.35854 204.626451 
L 79.46586 204.272912 
L 79.523353 204.163766 
L 79.630674 203.952592 
L 79.699666 203.857683 
L 79.803153 203.556345 
L 79.849148 203.45669 
L 79.956468 203.053324 
L 80.029292 202.960787 
L 80.136613 202.654703 
L 80.167276 202.557421 
L 80.274596 202.277437 
L 80.339755 202.177782 
L 80.447075 201.864581 
L 80.489237 201.764926 
L 80.596557 201.518161 
L 80.654051 201.420878 
L 80.761371 201.169368 
L 80.834196 201.074458 
L 80.834196 201.060222 
L 80.930017 200.889384 
L 81.037338 200.663974 
L 81.094831 200.57381 
L 81.202151 200.324672 
L 81.248146 200.246372 
L 81.355466 199.923679 
L 81.405293 199.816906 
L 81.512614 199.463367 
L 81.558608 199.37083 
L 81.665929 199.019665 
L 81.70809 198.910519 
L 81.815411 198.590199 
L 81.861405 198.497662 
L 81.968726 198.234288 
L 82.010887 198.137005 
L 82.118208 197.91634 
L 82.160369 197.828549 
L 82.26769 197.605511 
L 82.325183 197.501111 
L 82.432503 197.10249 
L 82.493829 197.002835 
L 82.493829 196.99809 
L 82.601149 196.777425 
L 82.650977 196.67777 
L 82.758297 196.473714 
L 82.819623 196.369313 
L 82.819623 196.366941 
L 82.926943 196.14153 
L 82.972938 196.065603 
L 82.972938 196.051366 
L 83.080258 195.785619 
L 83.130086 195.697828 
L 83.237406 195.386999 
L 83.279568 195.318189 
L 83.279568 195.289717 
L 83.386888 195.047697 
L 83.432883 194.938551 
L 83.53637 194.732122 
L 83.601529 194.625349 
L 83.708849 194.335875 
L 83.743345 194.229101 
L 83.846833 194.051146 
L 83.873663 193.958609 
L 83.980983 193.67388 
L 84.026978 193.574225 
L 84.026978 193.567107 
L 84.134298 193.280005 
L 84.168794 193.175605 
L 84.276114 192.983413 
L 84.325942 192.879012 
L 84.433262 192.534965 
L 84.486922 192.428191 
L 84.594243 192.217017 
L 84.651736 192.117362 
L 84.759056 191.880088 
L 84.816549 191.782806 
L 84.92387 191.490959 
L 84.966031 191.415031 
L 85.073352 191.137421 
L 85.142343 191.030647 
L 85.249664 190.783882 
L 85.31099 190.681854 
L 85.41831 190.480171 
L 85.494968 190.373398 
L 85.494968 190.371025 
L 85.602288 190.140869 
L 85.659781 190.043587 
L 85.767101 189.782586 
L 85.824594 189.687676 
L 85.931915 189.436166 
L 85.989408 189.33651 
L 85.989408 189.329392 
L 86.092895 189.120591 
L 86.150389 189.011445 
L 86.250043 188.809762 
L 86.296038 188.707734 
L 86.403358 188.508424 
L 86.47235 188.401651 
L 86.57967 188.173868 
L 86.617999 188.07184 
L 86.725319 187.879648 
L 86.83264 187.772874 
L 86.93996 187.497636 
L 86.99362 187.397981 
L 87.100941 187.196298 
L 87.146935 187.11088 
L 87.254256 186.773951 
L 87.292584 186.676668 
L 87.399905 186.458376 
L 87.472729 186.363466 
L 87.58005 186.090601 
L 87.629877 185.981455 
L 87.737197 185.727572 
L 87.802356 185.632662 
L 87.802356 185.623171 
L 87.909677 185.407252 
L 87.971003 185.305224 
L 88.078323 184.980159 
L 88.197142 184.778476 
L 88.304462 184.531711 
L 88.373454 184.422565 
L 88.480775 184.194782 
L 88.530602 184.090381 
L 88.637922 183.850734 
L 88.691582 183.772434 
L 88.798903 183.482959 
L 88.841064 183.378559 
L 88.944552 183.165012 
L 89.028875 183.058239 
L 89.132363 182.913502 
L 89.178357 182.804356 
L 89.281845 182.609791 
L 89.343171 182.500645 
L 89.450491 182.225407 
L 89.538647 182.123379 
L 89.642135 181.886105 
L 89.707293 181.803059 
L 89.814614 181.663067 
L 89.856775 181.553921 
L 89.964096 181.380711 
L 90.033088 181.281056 
L 90.033088 181.273938 
L 90.140408 181.034291 
L 90.205567 180.927518 
L 90.312887 180.759053 
L 90.385712 180.657025 
L 90.493032 180.433988 
L 90.558191 180.339078 
L 90.665511 180.08994 
L 90.715339 179.98554 
L 90.822659 179.871648 
L 90.860988 179.781484 
L 90.968308 179.565565 
L 91.0373 179.456419 
L 91.14462 179.216772 
L 91.274938 179.117117 
L 91.382258 178.889334 
L 91.42442 178.78256 
L 91.527908 178.604605 
L 91.566236 178.502577 
L 91.673557 178.258185 
L 91.73105 178.160902 
L 91.826872 177.928374 
L 91.926526 177.826346 
L 92.033847 177.572463 
L 92.102838 177.465689 
L 92.210159 177.211806 
L 92.271485 177.10266 
L 92.378805 176.917586 
L 92.432465 176.820304 
L 92.432465 176.810813 
L 92.53212 176.60913 
L 92.631775 176.499984 
L 92.739095 176.26271 
L 92.781257 176.155937 
L 92.888577 175.878326 
L 92.949903 175.797653 
L 92.949903 175.781044 
L 93.057223 175.546142 
L 93.118549 175.444114 
L 93.22587 175.259041 
L 93.302527 175.15464 
L 93.409848 174.926857 
L 93.486505 174.820084 
L 93.593825 174.604164 
L 93.697313 174.495018 
L 93.804633 174.305199 
L 93.885124 174.196053 
L 93.992444 174.001488 
L 94.061436 173.894715 
L 94.168756 173.690659 
L 94.226249 173.581513 
L 94.33357 173.377457 
L 94.52138 173.135438 
L 94.628701 172.872064 
L 94.690027 172.774781 
L 94.797347 172.584962 
L 94.923832 172.383279 
L 95.027319 172.15075 
L 95.096311 172.041604 
L 95.203631 171.903985 
L 95.280289 171.797212 
L 95.387609 171.60502 
L 95.445102 171.495874 
L 95.54859 171.225382 
L 95.621415 171.118608 
L 95.728735 170.933535 
L 95.820724 170.836252 
L 95.820724 170.831507 
L 95.928044 170.641687 
L 95.985537 170.532541 
L 96.092858 170.380686 
L 96.158017 170.27154 
L 96.261504 170.141039 
L 96.315164 170.067484 
L 96.422485 169.875292 
L 96.468479 169.773264 
L 96.5758 169.602427 
L 96.648624 169.493281 
L 96.755945 169.218043 
L 96.832602 169.113643 
L 96.939922 168.96416 
L 96.997415 168.859759 
L 97.104736 168.634349 
L 97.185226 168.525203 
L 97.292547 168.328265 
L 97.346207 168.219119 
L 97.453527 168.0554 
L 97.518686 167.972354 
L 97.626006 167.652034 
L 97.721828 167.545261 
L 97.829149 167.355442 
L 97.87131 167.248668 
L 97.978631 167.046985 
L 98.039957 166.940212 
L 98.147277 166.764629 
L 98.197104 166.667347 
L 98.304425 166.460919 
L 98.411745 166.358891 
L 98.519066 166.240254 
L 98.630219 166.135853 
L 98.737539 166.00298 
L 98.806531 165.898579 
L 98.913851 165.692151 
L 99.002007 165.583005 
L 99.109328 165.378949 
L 99.182152 165.281666 
L 99.289473 165.091847 
L 99.362297 165.004056 
L 99.362297 164.989819 
L 99.469618 164.764409 
L 99.615267 164.54849 
L 99.722587 164.361043 
L 99.803078 164.261388 
L 99.910398 164.10716 
L 99.971724 164.000387 
L 100.075211 163.805822 
L 100.171033 163.706167 
L 100.278354 163.430929 
L 100.347345 163.324156 
L 100.447 163.179418 
L 100.523657 163.070272 
L 100.630978 162.847235 
L 100.699969 162.740461 
L 100.80729 162.553015 
L 100.868616 162.446242 
L 100.975936 162.223204 
L 101.056427 162.054739 
L 101.159914 161.898138 
L 101.209741 161.793738 
L 101.317062 161.667983 
L 101.393719 161.558837 
L 101.50104 161.380881 
L 101.566198 161.271735 
L 101.673519 161.10327 
L 101.773174 160.99887 
L 101.880494 160.858878 
L 101.957151 160.749732 
L 102.060639 160.578895 
L 102.171792 160.474494 
L 102.279113 160.220611 
L 102.340439 160.111465 
L 102.443926 159.959609 
L 102.501419 159.852836 
L 102.604907 159.632171 
L 102.658567 159.530143 
L 102.762054 159.262024 
L 102.82338 159.15525 
L 102.930701 158.95594 
L 103.018857 158.856285 
L 103.126177 158.671211 
L 103.256495 158.562065 
L 103.363815 158.312927 
L 103.478801 158.220391 
L 103.478801 158.206154 
L 103.586122 157.985489 
L 103.643615 157.876343 
L 103.750935 157.722115 
L 103.865922 157.629578 
L 103.865922 157.612969 
L 103.965576 157.427895 
L 104.072897 157.235703 
L 104.153387 157.12893 
L 104.260707 156.90352 
L 104.299036 156.80861 
L 104.406356 156.6354 
L 104.463849 156.526254 
L 104.559671 156.348298 
L 104.636329 156.239152 
L 104.743649 156.118142 
L 104.827972 156.016115 
L 104.935293 155.812059 
L 104.992786 155.705286 
L 105.100106 155.532075 
L 105.199761 155.425302 
L 105.307081 155.23311 
L 105.356909 155.12871 
L 105.456563 154.884317 
L 105.548552 154.775171 
L 105.655873 154.613825 
L 105.755527 154.504679 
L 105.862848 154.400278 
L 105.920341 154.29825 
L 106.027661 154.094195 
L 106.131149 153.987421 
L 106.234636 153.795229 
L 106.318959 153.712183 
L 106.422447 153.519991 
L 106.47994 153.413218 
L 106.58726 153.237635 
L 106.675416 153.130862 
L 106.782737 152.969516 
L 106.847896 152.862742 
L 106.955216 152.677669 
L 107.005043 152.585132 
L 107.112364 152.373958 
L 107.196687 152.269557 
L 107.196687 152.264812 
L 107.304007 152.136684 
L 107.392163 152.027538 
L 107.487985 151.868564 
L 107.564643 151.745182 
L 107.671963 151.555362 
L 107.737122 151.446216 
L 107.844442 151.280124 
L 107.932598 151.170978 
L 108.036086 151.038105 
L 108.112743 150.928959 
L 108.220064 150.705921 
L 108.33505 150.596775 
L 108.430872 150.44492 
L 108.515195 150.342892 
L 108.618682 150.195782 
L 108.69534 150.093754 
L 108.80266 149.887326 
L 108.883151 149.780552 
L 108.990471 149.645306 
L 109.074794 149.545651 
L 109.182115 149.353459 
L 109.254939 149.244313 
L 109.358427 149.139912 
L 109.404421 149.049748 
L 109.504076 148.897893 
L 109.60373 148.793492 
L 109.711051 148.665364 
L 109.818371 148.560964 
L 109.918026 148.356908 
L 110.048344 148.252507 
L 110.155664 148.062688 
L 110.232321 147.958288 
L 110.339642 147.758977 
L 110.469959 147.554922 
L 110.57728 147.381712 
L 110.642439 147.272566 
L 110.745926 147.063764 
L 110.814918 146.959364 
L 110.918405 146.776663 
L 110.995063 146.684126 
L 110.995063 146.669889 
L 111.102383 146.503798 
L 111.186706 146.40177 
L 111.294027 146.240423 
L 111.382183 146.13365 
L 111.489503 145.984167 
L 111.581492 145.879767 
L 111.688813 145.737402 
L 111.746306 145.633002 
L 111.853626 145.476401 
L 111.964779 145.372 
L 112.0721 145.229636 
L 112.137259 145.12049 
L 112.240746 144.99948 
L 112.309738 144.890334 
L 112.417058 144.726615 
L 112.501381 144.617469 
L 112.601036 144.451377 
L 112.731354 144.365958 
L 112.838674 144.150039 
L 112.949827 144.043266 
L 113.057148 143.881919 
L 113.145304 143.78701 
L 113.252624 143.6138 
L 113.382942 143.509399 
L 113.490262 143.302971 
L 113.578418 143.200943 
L 113.578418 143.196197 
L 113.685739 142.968414 
L 113.777728 142.859268 
L 113.885048 142.648094 
L 113.950207 142.538948 
L 114.057527 142.406075 
L 114.161015 142.301674 
L 114.26067 142.190155 
L 114.321995 142.081009 
L 114.425483 141.995591 
L 114.517472 141.886444 
L 114.624792 141.751198 
L 114.693784 141.651543 
L 114.801104 141.535279 
L 114.873929 141.426133 
L 114.977417 141.279023 
L 115.100068 141.174622 
L 115.207389 141.046494 
L 115.310876 140.937348 
L 115.410531 140.818711 
L 115.517851 140.709565 
L 115.621339 140.562455 
L 115.701829 140.455682 
L 115.805317 140.275354 
L 115.897306 140.16858 
L 116.004626 140.007234 
L 116.100448 139.902833 
L 116.207768 139.74386 
L 116.364916 139.580141 
L 116.472236 139.414049 
L 116.548894 139.304903 
L 116.656214 139.110338 
L 116.786532 139.001192 
L 116.893852 138.865946 
L 116.978176 138.759172 
L 117.085496 138.574099 
L 117.196649 138.472071 
L 117.196649 138.467325 
L 117.300137 138.365297 
L 117.388293 138.256151 
L 117.495613 138.094805 
L 117.583769 137.988032 
L 117.69109 137.90024 
L 117.786911 137.798212 
L 117.894232 137.643984 
L 118.005385 137.551447 
L 118.112706 137.439929 
L 118.204694 137.337901 
L 118.308182 137.216891 
L 118.396338 137.110118 
L 118.499826 136.967753 
L 118.607146 136.863353 
L 118.706801 136.720988 
L 118.783458 136.637942 
L 118.890779 136.478969 
L 118.998099 136.369823 
L 119.105419 136.215594 
L 119.37372 135.923747 
L 119.481041 135.793247 
L 119.619024 135.684101 
L 119.726345 135.546482 
L 119.814501 135.453945 
L 119.921821 135.32819 
L 119.983147 135.219043 
L 120.090467 135.067188 
L 120.174791 134.960415 
L 120.282111 134.834659 
L 120.362601 134.732632 
L 120.362601 134.727886 
L 120.469922 134.571285 
L 120.581075 134.462139 
L 120.688395 134.348248 
L 120.749721 134.239102 
L 120.857042 134.051655 
L 120.937532 133.942509 
L 121.044852 133.771672 
L 121.140674 133.664898 
L 121.247995 133.479825 
L 121.347649 133.375424 
L 121.45497 133.21645 
L 121.550791 133.107304 
L 121.658112 133.007649 
L 121.796095 132.900876 
L 121.903416 132.730039 
L 121.999237 132.620893 
L 122.106558 132.542592 
L 122.210045 132.438191 
L 122.305867 132.319554 
L 122.3097 132.319554 
L 122.428519 132.184308 
L 122.53584 132.018216 
L 122.646993 131.90907 
L 122.738982 131.828397 
L 122.892297 131.719251 
L 122.995784 131.56265 
L 123.106937 131.453504 
L 123.210425 131.323003 
L 123.294748 131.218603 
L 123.394403 131.088102 
L 123.474893 130.983702 
L 123.578381 130.819982 
L 123.67037 130.715582 
L 123.77769 130.573217 
L 123.865846 130.464071 
L 123.969334 130.321707 
L 124.038325 130.212561 
L 124.145646 130.072569 
L 124.321958 129.837668 
L 124.429278 129.68344 
L 124.540431 129.583785 
L 124.647752 129.420065 
L 124.758905 129.310919 
L 124.866225 129.197028 
L 124.973546 129.092627 
L 125.069368 128.928908 
L 125.080866 128.928908 
L 125.176688 128.746207 
L 125.284009 128.672652 
L 125.383663 128.570624 
L 125.490984 128.40216 
L 125.575307 128.295386 
L 125.678794 128.183868 
L 125.759285 128.074722 
L 125.866605 127.965576 
L 125.958594 127.868293 
L 126.062081 127.721183 
L 126.196232 127.616783 
L 126.303552 127.498146 
L 126.361045 127.410354 
L 126.464533 127.289344 
L 126.556522 127.189689 
L 126.660009 127.097152 
L 126.786494 126.988006 
L 126.893815 126.857506 
L 127.001135 126.753105 
L 127.108455 126.617859 
L 127.257937 126.511086 
L 127.365258 126.394821 
L 127.472578 126.285675 
L 127.579899 126.09111 
L 127.694885 125.984337 
L 127.802205 125.844345 
L 127.87503 125.739945 
L 127.974684 125.626053 
L 128.108835 125.524025 
L 128.216155 125.379288 
L 128.319643 125.279633 
L 128.426963 125.123032 
L 128.492122 125.016259 
L 128.599443 124.831185 
L 128.714429 124.722039 
L 128.821749 124.582047 
L 128.894574 124.484765 
L 129.001894 124.356637 
L 129.097716 124.249864 
L 129.205036 124.121736 
L 129.293192 124.017335 
L 129.400513 123.867853 
L 129.47717 123.758706 
L 129.584491 123.654306 
L 129.680312 123.549905 
L 129.680312 123.54516 
L 129.89112 123.30314 
L 129.998441 123.141794 
L 130.101928 123.035021 
L 130.209249 122.902147 
L 130.324235 122.797747 
L 130.431555 122.6625 
L 130.527377 122.562845 
L 130.527377 122.553354 
L 130.627032 122.479799 
L 130.719021 122.375399 
L 130.822508 122.21168 
L 130.910664 122.114397 
L 131.017985 121.96966 
L 131.129138 121.865259 
L 131.236458 121.715777 
L 131.328447 121.611376 
L 131.435768 121.497485 
L 131.527756 121.388339 
L 131.635077 121.245974 
L 131.77306 121.136828 
L 131.880381 121.0087 
L 131.983868 120.909045 
L 132.091189 120.776172 
L 132.18701 120.667026 
L 132.290498 120.560252 
L 132.420816 120.453479 
L 132.528136 120.287387 
L 132.643122 120.180614 
L 132.750443 120.052486 
L 132.842431 119.945712 
L 132.942086 119.846057 
L 133.053239 119.746402 
L 133.16056 119.585056 
L 133.264047 119.483028 
L 133.363702 119.362018 
L 133.490187 119.252872 
L 133.597507 119.138981 
L 133.731658 119.029835 
L 133.838978 118.880352 
L 133.942466 118.778324 
L 134.045953 118.650196 
L 134.141775 118.545795 
L 134.249095 118.374958 
L 134.333419 118.270558 
L 134.440739 118.132939 
L 134.536561 118.026165 
L 134.643881 117.895665 
L 135.06933 117.511281 
L 135.172817 117.364171 
L 135.280138 117.25977 
L 135.387458 117.124524 
L 135.475614 117.029614 
L 135.582935 116.929959 
L 135.674924 116.830304 
L 135.782244 116.695058 
L 135.912562 116.585912 
L 136.016049 116.436429 
L 136.104205 116.329656 
L 136.211526 116.230001 
L 136.341843 116.142209 
L 136.445331 115.966626 
L 136.556484 115.85748 
L 136.656139 115.767316 
L 136.763459 115.660543 
L 136.866947 115.534788 
L 136.958936 115.425642 
L 137.066256 115.333105 
L 137.185075 115.226331 
L 137.288563 115.08634 
L 137.407382 114.989057 
L 137.514702 114.827711 
L 137.679516 114.72331 
L 137.679516 114.720938 
L 137.783003 114.578573 
L 137.947817 114.4718 
L 138.051304 114.37689 
L 138.177789 114.267744 
L 138.285109 114.127752 
L 138.384764 114.018606 
L 138.488251 113.937933 
L 138.591739 113.828787 
L 138.699059 113.695914 
L 138.794881 113.593886 
L 138.902202 113.437285 
L 138.975026 113.328139 
L 139.078514 113.197638 
L 139.082347 113.197638 
L 139.480965 112.820372 
L 139.588286 112.69699 
L 139.699439 112.590217 
L 139.806759 112.492934 
L 139.917913 112.383788 
L 140.0214 112.265151 
L 140.113389 112.163123 
L 140.220709 112.037368 
L 140.320364 111.930595 
L 140.423852 111.842803 
L 140.573334 111.73603 
L 140.680654 111.634002 
L 140.837802 111.524856 
L 140.945122 111.429946 
L 141.106103 111.323173 
L 141.213423 111.225891 
L 141.297746 111.130981 
L 141.297746 111.128608 
L 141.458727 111.014717 
L 141.600543 110.905571 
L 141.704031 110.810661 
L 141.84968 110.708633 
L 141.949335 110.620842 
L 141.957 110.620842 
L 142.045156 110.514069 
L 142.148644 110.414413 
L 142.29046 110.305267 
L 142.397781 110.18663 
L 142.528098 110.079857 
L 142.635419 109.989693 
L 142.807898 109.880547 
L 142.907553 109.78801 
L 143.045536 109.688355 
L 143.149023 109.572091 
L 143.306171 109.462945 
L 143.413492 109.382271 
L 143.516979 109.280243 
L 143.6243 109.126015 
L 143.739286 109.021615 
L 143.842773 108.846032 
L 143.984589 108.744004 
L 144.09191 108.658585 
L 144.22606 108.556558 
L 144.329548 108.440293 
L 144.406205 108.343011 
L 144.513526 108.217256 
L 144.640011 108.115228 
L 144.739665 107.984727 
L 144.89298 107.877954 
L 145.0003 107.709489 
L 145.092289 107.619325 
L 145.184278 107.500688 
L 145.30693 107.393915 
L 145.414251 107.265787 
L 145.502407 107.168504 
L 145.609727 107.049867 
L 145.751543 106.943094 
L 145.855031 106.874285 
L 145.966184 106.765138 
L 146.073505 106.648874 
L 146.226819 106.542101 
L 146.326474 106.4377 
L 146.44146 106.328554 
L 146.541115 106.221781 
L 146.663767 106.115008 
L 146.771087 106.008234 
L 146.859243 105.906206 
L 146.962731 105.782824 
L 147.096881 105.676051 
L 147.204202 105.564532 
L 147.300023 105.455386 
L 147.407344 105.334376 
L 147.591322 105.22523 
L 147.698642 105.125575 
L 147.832793 105.021174 
L 147.940113 104.90491 
L 148.066598 104.802882 
L 148.173918 104.677127 
L 148.292737 104.575099 
L 148.400058 104.439853 
L 148.52271 104.330707 
L 148.626197 104.164615 
L 148.771846 104.055469 
L 148.875334 103.951068 
L 148.974988 103.841922 
L 149.082309 103.739894 
L 149.201128 103.630748 
L 149.308448 103.569057 
L 149.477095 103.459911 
L 149.580582 103.338901 
L 149.695568 103.232128 
L 149.944705 102.949772 
L 150.052025 102.838253 
L 150.182343 102.736225 
L 150.285831 102.586742 
L 150.416148 102.477596 
L 150.523469 102.39455 
L 150.626956 102.285404 
L 150.734277 102.183376 
L 150.837764 102.07423 
L 150.945084 102.014912 
L 151.075402 101.905766 
L 151.17889 101.820347 
L 151.28621 101.711201 
L 151.39353 101.625782 
L 151.546845 101.516636 
L 151.654166 101.383763 
L 151.795982 101.279362 
L 151.903302 101.172589 
L 152.022121 101.070561 
L 152.125609 100.999379 
L 152.240595 100.894978 
L 152.344083 100.76685 
L 152.462902 100.664822 
L 152.570222 100.543813 
L 152.696707 100.434667 
L 152.804027 100.346875 
L 152.934345 100.237729 
L 153.041665 100.128583 
L 153.14132 100.02181 
L 153.244807 99.924527 
L 153.378958 99.817754 
L 153.486278 99.720472 
L 153.639593 99.613698 
L 153.743081 99.514043 
L 153.88873 99.404897 
L 153.99605 99.321851 
L 154.176195 99.217451 
L 154.279683 99.070341 
L 154.398502 98.963567 
L 154.498157 98.86154 
L 154.705132 98.754766 
L 154.812452 98.626638 
L 154.9696 98.522238 
L 155.07692 98.415464 
L 155.203405 98.308691 
L 155.306892 98.232763 
L 155.425711 98.123617 
L 155.506202 98.019217 
L 155.533032 98.019217 
L 155.663349 97.910071 
L 155.751506 97.841261 
L 155.90482 97.732115 
L 156.004475 97.646696 
L 156.012141 97.646696 
L 156.13096 97.539923 
L 156.222949 97.454504 
L 156.23828 97.454504 
L 156.376264 97.361968 
L 156.468253 97.224349 
L 156.483584 97.224349 
L 156.579406 97.119948 
L 156.686726 97.020293 
L 156.828542 96.911147 
L 156.93203 96.837592 
L 157.081512 96.730819 
L 157.188832 96.624045 
L 157.338314 96.514899 
L 157.445635 96.422362 
L 157.568287 96.322707 
L 157.675607 96.192207 
L 157.794426 96.08306 
L 157.901747 95.964423 
L 158.032064 95.860023 
L 158.032064 95.85765 
L 158.139385 95.798332 
L 158.273535 95.689185 
L 158.377023 95.558685 
L 158.561 95.454284 
L 158.664488 95.380729 
L 158.764143 95.278701 
L 158.86763 95.155319 
L 158.986449 95.053291 
L 159.086104 94.929909 
L 159.22792 94.823135 
L 159.335241 94.732971 
L 159.488555 94.623825 
L 159.595876 94.521797 
L 159.733859 94.417397 
L 159.837347 94.315369 
L 159.963832 94.215714 
L 160.071152 94.099449 
L 160.212968 93.995049 
L 160.320289 93.907257 
L 160.519598 93.798111 
L 160.626918 93.703202 
L 160.757236 93.596428 
L 160.757236 93.594056 
L 161.519977 92.993752 
L 161.623465 92.89647 
L 161.769114 92.787324 
L 161.876435 92.671059 
L 161.995254 92.561913 
L 162.102574 92.464631 
L 162.213727 92.362603 
L 162.321048 92.272439 
L 162.493527 92.163293 
L 162.600847 92.063638 
L 162.769494 91.954492 
L 162.876814 91.88331 
L 163.087622 91.774164 
L 163.194942 91.683999 
L 163.35209 91.579599 
L 163.459411 91.498926 
L 163.681717 91.38978 
L 163.789037 91.342325 
L 163.957684 91.235551 
L 164.065004 91.12166 
L 164.218319 91.017259 
L 164.32564 90.900995 
L 164.478954 90.798967 
L 164.586275 90.723039 
L 164.708927 90.618639 
L 164.812414 90.518984 
L 165.000225 90.416956 
L 165.107545 90.345774 
L 165.326019 90.236628 
L 165.433339 90.153582 
L 165.59432 90.046808 
L 165.697808 89.956644 
L 165.797462 89.847498 
L 165.90095 89.771571 
L 166.081095 89.664797 
L 166.188415 89.610224 
L 166.291903 89.510569 
L 166.399223 89.437014 
L 166.495045 89.332614 
L 166.602365 89.206858 
L 166.801675 89.097712 
L 166.901329 89.009921 
L 167.123636 88.900775 
L 167.211792 88.815356 
L 167.380438 88.708583 
L 167.487759 88.625537 
L 167.717731 88.518763 
L 167.821218 88.442836 
L 167.963035 88.336062 
L 168.058857 88.283862 
L 168.227503 88.174716 
L 168.334823 88.079806 
L 168.499637 87.97066 
L 168.603124 87.871005 
L 168.767938 87.761859 
L 168.867592 87.685932 
L 169.020907 87.576785 
L 169.128228 87.491367 
L 169.258545 87.382221 
L 169.365866 87.306293 
L 169.511515 87.197147 
L 169.618835 87.135456 
L 169.760652 87.02631 
L 169.867972 86.971737 
L 170.040451 86.867336 
L 170.13244 86.789036 
L 170.281922 86.67989 
L 170.38541 86.618198 
L 170.588552 86.509052 
L 170.695872 86.454479 
L 170.830023 86.345333 
L 170.937343 86.248051 
L 171.098324 86.138905 
L 171.205644 86.051113 
L 171.366625 85.949085 
L 171.473945 85.87553 
L 171.730748 85.773503 
L 171.834235 85.685711 
L 172.102536 85.576565 
L 172.209857 85.505383 
L 172.355506 85.39861 
L 172.462826 85.298955 
L 172.619974 85.189808 
L 172.723461 85.120999 
L 172.884442 85.014226 
L 172.991762 84.914571 
L 173.198737 84.807797 
L 173.302225 84.750851 
L 173.394214 84.641705 
L 173.490036 84.563405 
L 173.712342 84.459004 
L 173.819663 84.380704 
L 173.953813 84.273931 
L 174.041969 84.228849 
L 174.210616 84.131566 
L 174.317936 84.024793 
L 174.494248 83.915647 
L 174.601569 83.834974 
L 174.754883 83.725828 
L 174.862204 83.654645 
L 175.023184 83.545499 
L 175.130505 83.479063 
L 175.268488 83.369916 
L 175.375809 83.289243 
L 175.49846 83.18247 
L 175.605781 83.078069 
L 175.816589 82.968923 
L 175.923909 82.895368 
L 176.065725 82.79334 
L 176.16538 82.726904 
L 176.341692 82.62013 
L 176.441347 82.546575 
L 176.602328 82.44692 
L 176.701982 82.380484 
L 176.878294 82.271338 
L 176.985615 82.190664 
L 177.108267 82.086264 
L 177.215587 81.9961 
L 177.434061 81.886954 
L 177.537548 81.792044 
L 177.721526 81.682898 
L 177.828846 81.618834 
L 177.982161 81.509688 
L 178.089482 81.414778 
L 178.292624 81.305632 
L 178.399944 81.224959 
L 178.568591 81.115813 
L 178.668245 81.049376 
L 178.844557 80.944976 
L 178.940379 80.880912 
L 179.10136 80.778884 
L 179.204847 80.686347 
L 179.423321 80.579574 
L 179.530642 80.465682 
L 179.695455 80.358909 
L 179.783611 80.29959 
L 179.98292 80.190444 
L 180.086408 80.138244 
L 180.239723 80.03147 
L 180.34321 79.95317 
L 180.511857 79.844024 
L 180.619177 79.768096 
L 180.814654 79.65895 
L 180.910475 79.602004 
L 181.159612 79.492858 
L 181.266932 79.43354 
L 181.527568 79.324394 
L 181.627222 79.243721 
L 181.834197 79.134575 
L 181.937685 79.046783 
L 182.106331 78.937637 
L 182.213652 78.849846 
L 182.340136 78.762054 
L 182.435958 78.662399 
L 182.650599 78.555626 
L 182.757919 78.460716 
L 182.930399 78.356316 
L 183.033886 78.294624 
L 183.229363 78.187851 
L 183.329017 78.095314 
L 183.528327 77.986168 
L 183.635647 77.912613 
L 183.811959 77.803467 
L 183.91928 77.73703 
L 184.10709 77.635002 
L 184.10709 77.630257 
L 184.210578 77.547211 
L 184.41372 77.440438 
L 184.517208 77.392983 
L 184.731848 77.28621 
L 184.835336 77.241128 
L 185.038478 77.131981 
L 185.145799 77.07029 
L 185.283782 76.970635 
L 185.387269 76.885216 
L 185.563582 76.783189 
L 185.670902 76.695397 
L 185.904707 76.588624 
L 186.008195 76.505578 
L 186.180674 76.398805 
L 186.284161 76.315759 
L 186.471972 76.213731 
L 186.57546 76.13543 
L 186.786268 76.026284 
L 186.870591 75.964593 
L 187.131226 75.855447 
L 187.238546 75.770028 
L 187.361198 75.665628 
L 187.468519 75.596818 
L 187.690825 75.487672 
L 187.786647 75.41649 
L 188.039617 75.309717 
L 188.143104 75.219553 
L 188.288753 75.112779 
L 188.392241 75.058206 
L 188.595383 74.953806 
L 188.702703 74.87076 
L 188.97867 74.761614 
L 189.078325 74.678568 
L 189.220141 74.571794 
L 189.323629 74.521967 
L 189.549768 74.415194 
L 189.657088 74.320284 
L 189.913891 74.211138 
L 190.021211 74.13521 
L 190.33934 74.028437 
L 190.423663 73.978609 
L 190.645969 73.876581 
L 190.75329 73.784045 
L 190.983262 73.677271 
L 191.08675 73.594225 
L 191.224733 73.487452 
L 191.328221 73.437624 
L 191.623352 73.328478 
L 191.726839 73.264414 
L 191.730672 73.264414 
L 192.232778 73.06985 
L 192.504912 72.960704 
L 192.612233 72.856303 
L 192.826873 72.747157 
L 192.934194 72.702075 
L 193.072177 72.592929 
L 193.179498 72.50751 
L 193.359643 72.398364 
L 193.443966 72.350909 
L 193.712267 72.241763 
L 193.819587 72.191936 
L 194.045727 72.087535 
L 194.153047 72.006862 
L 194.294863 71.900089 
L 194.394518 71.84077 
L 194.605326 71.731624 
L 194.712646 71.650951 
L 194.911956 71.541805 
L 195.019276 71.496723 
L 195.157259 71.387577 
L 195.256914 71.344867 
L 195.448558 71.235721 
L 195.555878 71.176403 
L 195.755187 71.072002 
L 195.858675 70.993702 
L 196.142307 70.884556 
L 196.249628 70.829983 
L 196.441271 70.720836 
L 196.529427 70.673382 
L 196.701907 70.564236 
L 196.790063 70.497799 
L 197.012369 70.388653 
L 197.11969 70.338825 
L 197.33433 70.232052 
L 197.441651 70.14426 
L 197.717618 70.035114 
L 197.821105 69.985287 
L 198.039579 69.876141 
L 198.146899 69.804959 
L 198.300214 69.695813 
L 198.407535 69.638867 
L 198.606844 69.539212 
L 198.606844 69.529721 
L 198.706499 69.460911 
L 199.013128 69.354138 
L 199.120449 69.328038 
L 199.346588 69.218892 
L 199.453909 69.138218 
L 199.745207 69.029072 
L 199.852527 68.979245 
L 200.082499 68.872472 
L 200.170656 68.801289 
L 200.389129 68.692143 
L 200.492617 68.642316 
L 200.707258 68.53317 
L 200.810745 68.473851 
L 201.006222 68.364705 
L 201.113542 68.298268 
L 201.309018 68.191495 
L 201.408673 68.132176 
L 201.615648 68.025403 
L 201.707637 67.973203 
L 202.006601 67.864057 
L 202.09859 67.811857 
L 202.209743 67.705083 
L 202.305565 67.655256 
L 202.48571 67.550855 
L 202.570033 67.515264 
L 202.807671 67.406118 
L 202.89966 67.344427 
L 203.213956 67.237653 
L 203.317443 67.190198 
L 203.581911 67.083425 
L 203.677733 67.026479 
L 203.946034 66.917333 
L 204.053355 66.874624 
L 204.317823 66.765478 
L 204.42131 66.706159 
L 204.639784 66.613623 
L 204.747104 66.480749 
L 204.973244 66.376348 
L 205.072898 66.319403 
L 205.318202 66.210257 
L 205.425523 66.148565 
L 205.689991 66.044165 
L 205.797311 65.987219 
L 206.460398 65.695372 
L 206.724866 65.588599 
L 206.824521 65.536398 
L 207.088989 65.431998 
L 207.188644 65.389288 
L 207.426282 65.280142 
L 207.525936 65.232688 
L 207.775073 65.123541 
L 207.882393 65.078459 
L 208.192856 64.969313 
L 208.300176 64.928977 
L 208.564645 64.822203 
L 208.671965 64.78424 
L 208.928767 64.677466 
L 209.036088 64.618148 
L 209.246896 64.509002 
L 209.34655 64.475783 
L 209.534361 64.366637 
L 209.641681 64.312064 
L 210.028802 64.202918 
L 210.136122 64.129363 
L 210.40059 64.020217 
L 210.504078 63.986999 
L 210.806874 63.882598 
L 210.914195 63.811416 
L 211.117337 63.704643 
L 211.224657 63.638206 
L 211.500624 63.52906 
L 211.607945 63.488723 
L 211.849416 63.379577 
L 211.952903 63.325004 
L 212.278697 63.215858 
L 212.374519 63.168403 
L 212.665817 63.06163 
L 212.773138 62.980957 
L 213.079767 62.871811 
L 213.183255 62.81961 
L 213.486052 62.710464 
L 213.593372 62.651146 
L 213.892336 62.542 
L 213.999657 62.492172 
L 214.229629 62.385399 
L 214.313952 62.342689 
L 214.582253 62.235916 
L 214.678075 62.188461 
L 215.007702 62.079315 
L 215.103524 62.038979 
L 215.111189 62.038979 
L 215.444649 61.929833 
L 215.548137 61.863396 
L 215.839435 61.75425 
L 215.942923 61.704422 
L 216.157563 61.595276 
L 216.241887 61.571549 
L 216.609842 61.462403 
L 216.717163 61.38173 
L 216.970132 61.272583 
L 217.077453 61.227501 
L 217.28826 61.120728 
L 217.395581 61.06141 
L 217.663882 60.954636 
L 217.767369 60.904809 
L 217.997342 60.798035 
L 218.100829 60.731599 
L 218.31547 60.624825 
L 218.418958 60.574998 
L 218.683426 60.465852 
L 218.786913 60.437379 
L 219.06288 60.340096 
L 219.1702 60.287896 
L 219.515159 60.17875 
L 219.622479 60.145532 
L 219.944441 60.038758 
L 220.051761 59.991304 
L 220.258736 59.886903 
L 220.350725 59.844194 
L 220.695683 59.735048 
L 220.799171 59.689966 
L 221.090469 59.580819 
L 221.182458 59.542856 
L 221.531249 59.43371 
L 221.619406 59.383882 
L 221.9452 59.274736 
L 222.048687 59.21779 
L 222.378314 59.108644 
L 222.474136 59.04458 
L 222.742437 58.94018 
L 222.830593 58.899843 
L 223.156387 58.790697 
L 223.263707 58.740869 
L 223.578003 58.631723 
L 223.677658 58.600878 
L 223.999619 58.491732 
L 224.106939 58.465631 
L 224.536221 58.356485 
L 224.643541 58.311403 
L 224.904177 58.202257 
L 225.007664 58.166666 
L 225.279798 58.059893 
L 225.383286 58.017183 
L 225.697581 57.91041 
L 225.804901 57.860583 
L 226.234183 57.751436 
L 226.341503 57.701609 
L 226.709459 57.592463 
L 226.812947 57.53789 
L 227.119576 57.431117 
L 227.226897 57.388407 
L 227.464535 57.279261 
L 227.548858 57.236552 
L 227.95131 57.127406 
L 228.035633 57.098933 
L 228.449583 56.989787 
L 228.55307 56.951823 
L 228.825204 56.842677 
L 228.924859 56.807086 
L 229.196993 56.702685 
L 229.30048 56.659976 
L 229.614776 56.55083 
L 229.722096 56.484393 
L 230.040225 56.375247 
L 230.143712 56.339656 
L 230.557662 56.23051 
L 230.66115 56.173564 
L 231.098097 56.064418 
L 231.201585 56.035945 
L 231.512047 55.926799 
L 231.619368 55.895953 
L 231.937496 55.786807 
L 232.044816 55.755962 
L 232.405106 55.649188 
L 232.485597 55.620715 
L 232.845887 55.511569 
L 232.945541 55.480724 
L 233.190845 55.371578 
L 233.298166 55.326496 
L 233.696784 55.21735 
L 233.804105 55.193622 
L 234.233386 55.084476 
L 234.336874 55.039394 
L 234.651169 54.932621 
L 234.754657 54.89703 
L 235.049788 54.787884 
L 235.076618 54.780765 
L 235.551894 54.671619 
L 235.655382 54.614673 
L 235.935181 54.505527 
L 236.023337 54.467564 
L 236.437287 54.358417 
L 236.536942 54.332317 
L 236.85507 54.225544 
L 236.958558 54.18758 
L 237.403171 54.078434 
L 237.502826 54.052334 
L 237.809456 53.943188 
L 237.901444 53.909969 
L 238.231071 53.800823 
L 238.338392 53.760487 
L 238.73701 53.651341 
L 238.832832 53.59914 
L 239.235284 53.489994 
L 239.331106 53.44254 
L 239.695228 53.333394 
L 239.798716 53.290684 
L 240.189669 53.181538 
L 240.296989 53.117474 
L 240.691775 53.008328 
L 240.795263 52.97511 
L 241.144054 52.865964 
L 241.247541 52.837491 
L 241.642327 52.728345 
L 241.749648 52.695126 
L 242.067776 52.593098 
L 242.167431 52.562253 
L 242.175096 52.562253 
L 242.531553 52.453107 
L 242.635041 52.415143 
L 243.037492 52.305997 
L 243.137147 52.270406 
L 243.566429 52.16126 
L 243.669916 52.137532 
L 244.244847 52.028386 
L 244.352167 51.997541 
L 244.762285 51.890767 
L 244.854274 51.833821 
L 245.30272 51.727048 
L 245.387043 51.700948 
L 245.827823 51.591802 
L 245.927478 51.54672 
L 246.375924 51.442319 
L 246.483244 51.392492 
L 246.874197 51.290464 
L 246.981517 51.257246 
L 247.426131 51.152845 
L 247.514287 51.126745 
L 248.004894 51.019971 
L 248.112215 50.986753 
L 248.579825 50.877607 
L 248.65265 50.844389 
L 249.081931 50.735243 
L 249.17392 50.702024 
L 249.6147 50.592878 
L 249.722021 50.569151 
L 250.166634 50.46475 
L 250.258623 50.443396 
L 250.733899 50.336622 
L 250.810556 50.296286 
L 251.251337 50.18714 
L 251.347158 50.156294 
L 251.630791 50.047148 
L 251.726613 49.99732 
L 252.171226 49.888174 
L 252.267048 49.847838 
L 252.784485 49.741064 
L 252.891806 49.7031 
L 253.305756 49.593954 
L 253.413076 49.553618 
L 253.788698 49.446844 
L 253.896018 49.411253 
L 254.221812 49.302107 
L 254.317634 49.268889 
L 254.754581 49.159743 
L 254.861902 49.136015 
L 255.298849 49.026869 
L 255.406169 48.988906 
L 255.915941 48.879759 
L 256.00793 48.848914 
L 256.433379 48.739768 
L 256.521535 48.71604 
L 257.06197 48.606894 
L 257.16929 48.578421 
L 257.629235 48.469275 
L 257.736555 48.436057 
L 258.181169 48.329284 
L 258.284656 48.293693 
L 258.725436 48.189292 
L 258.821258 48.163192 
L 259.300367 48.056419 
L 259.377025 48.013709 
L 259.844635 47.906936 
L 259.905961 47.895072 
L 260.415733 47.785926 
L 260.507722 47.759826 
L 260.85268 47.65068 
L 260.944669 47.629325 
L 261.350953 47.524925 
L 261.450608 47.50357 
L 262.056202 47.394424 
L 262.152024 47.368324 
L 262.562141 47.259178 
L 262.669461 47.204605 
L 263.255891 47.095459 
L 263.34788 47.059867 
L 263.712002 46.950721 
L 263.819323 46.929367 
L 264.344426 46.820221 
L 264.447914 46.791748 
L 265.111001 46.682602 
L 265.214488 46.656502 
L 265.981062 46.549728 
L 266.080717 46.518883 
L 266.920116 46.409737 
L 267.015938 46.376518 
L 267.564038 46.269745 
L 267.667526 46.243645 
L 268.188797 46.134499 
L 268.284618 46.106026 
L 268.790557 45.99688 
L 268.894045 45.968407 
L 269.43448 45.861633 
L 269.51497 45.826042 
L 270.273879 45.719269 
L 270.339038 45.70266 
L 270.354369 45.70266 
L 271.040453 45.593514 
L 271.128609 45.572159 
L 271.803195 45.463013 
L 271.910515 45.43454 
L 272.619596 45.325394 
L 272.707752 45.296921 
L 273.271184 45.187775 
L 273.374672 45.168793 
L 273.976433 45.059647 
L 274.07992 45.03592 
L 274.815832 44.926774 
L 274.919319 44.893555 
L 275.375431 44.786782 
L 275.478918 44.751191 
L 276.000189 44.642045 
L 276.103677 44.615945 
L 276.663276 44.506799 
L 276.766763 44.483071 
L 277.357026 44.373925 
L 277.437516 44.347825 
L 278.23092 44.238679 
L 278.326742 44.200715 
L 278.92467 44.093942 
L 279.020492 44.072587 
L 279.518765 43.963441 
L 279.622253 43.937341 
L 280.224014 43.828195 
L 280.331334 43.811586 
L 280.902432 43.70244 
L 281.009752 43.676339 
L 281.462031 43.567193 
L 281.55402 43.548211 
L 282.190277 43.439065 
L 282.293764 43.40822 
L 282.876361 43.299074 
L 282.945353 43.272974 
L 283.673598 43.163827 
L 283.76942 43.149591 
L 284.524496 43.040445 
L 284.620317 43.007227 
L 285.283404 42.898081 
L 285.375393 42.867235 
L 286.214792 42.758089 
L 286.306781 42.731989 
L 287.127016 42.625215 
L 287.219004 42.608606 
L 288.142727 42.49946 
L 288.234715 42.489969 
L 289.024287 42.380823 
L 289.131607 42.357096 
L 289.783196 42.24795 
L 289.844522 42.23134 
L 290.710751 42.122194 
L 290.806572 42.107958 
L 291.653637 42.001185 
L 291.734127 41.977457 
L 292.420211 41.873057 
L 292.5122 41.854075 
L 293.133125 41.744929 
L 293.236613 41.716456 
L 294.145004 41.60731 
L 294.244658 41.578837 
L 295.233539 41.469691 
L 295.291032 41.445963 
L 296.184091 41.336817 
L 296.264582 41.31309 
L 297.103981 41.203944 
L 297.195969 41.189707 
L 298.161853 41.080561 
L 298.246176 41.07107 
L 299.304049 40.961924 
L 299.384539 40.947688 
L 300.112785 40.838542 
L 300.193275 40.81956 
L 301.025008 40.710414 
L 301.116997 40.691432 
L 301.998558 40.582286 
L 302.056051 40.575167 
L 302.899283 40.466021 
L 302.94911 40.454158 
L 304.02998 40.345012 
L 304.125801 40.323657 
L 305.375318 40.214511 
L 305.459641 40.200274 
L 306.452355 40.093501 
L 306.544343 40.072146 
L 307.544723 39.963 
L 307.648211 39.951137 
L 308.292133 39.844363 
L 308.380289 39.825381 
L 309.254184 39.716235 
L 309.338507 39.697253 
L 310.227733 39.588107 
L 310.281393 39.580989 
L 311.435088 39.474216 
L 311.534742 39.450488 
L 312.38564 39.341342 
L 312.485295 39.334224 
L 313.684983 39.225078 
L 313.769307 39.21796 
L 313.788471 39.21796 
L 315.317787 39.108814 
L 315.386778 39.094577 
L 316.655459 38.985431 
L 316.751281 38.964077 
L 317.931805 38.854931 
L 318.039126 38.84544 
L 319.280976 38.741039 
L 319.388297 38.726803 
L 320.871618 38.617657 
L 320.929111 38.608166 
L 322.025312 38.499019 
L 322.113468 38.494274 
L 323.531631 38.387501 
L 323.585291 38.37801 
L 325.563053 38.268864 
L 325.61288 38.254627 
L 326.946719 38.147854 
L 327.046374 38.128872 
L 328.594854 38.019726 
L 328.621684 38.012608 
L 330.453797 37.903462 
L 330.453797 37.901089 
L 332.002277 37.791943 
L 332.094266 37.782452 
L 334.171683 37.675679 
L 334.27517 37.661442 
L 335.66267 37.552296 
L 335.66267 37.549923 
L 337.540777 37.440777 
L 337.563774 37.431286 
L 339.392054 37.32214 
L 339.491709 37.312649 
L 341.691777 37.203503 
L 341.7761 37.191639 
L 343.63121 37.082493 
L 343.7117 37.077748 
L 345.81978 36.968602 
L 345.904103 36.961484 
L 348.203826 36.852338 
L 348.291982 36.845219 
L 350.85234 36.736073 
L 350.87917 36.731328 
L 354.324922 36.622182 
L 354.374749 36.612691 
L 357.740011 36.503545 
L 357.740011 36.501172 
L 357.763008 36.501172 
L 360.465182 36.392026 
L 360.538007 36.384908 
L 364.298054 36.275762 
L 364.38621 36.263898 
L 368.855339 36.154752 
L 368.863004 36.150006 
L 375.421048 36.04086 
L 375.421048 36.038488 
L 382.15157 35.929341 
L 382.15157 35.926969 
L 400.284886 35.834432 
L 400.284886 35.834432 
" clip-path="url(#p1ed3a41c77)" style="fill: none; stroke: #1f77b4; stroke-width: 2; stroke-linecap: square"/>
   </g>
   <g id="line2d_14">
    <path d="M 60.757614 300.198068 
L 400.284886 35.834432 
" clip-path="url(#p1ed3a41c77)" style="fill: none; stroke-dasharray: 3.7,1.6; stroke-dashoffset: 0; stroke: #7f7f7f"/>
   </g>
   <g id="patch_3">
    <path d="M 43.78125 313.41625 
L 43.78125 22.61625 
" style="fill: none; stroke: #000000; stroke-width: 0.8; stroke-linejoin: miter; stroke-linecap: square"/>
   </g>
   <g id="patch_4">
    <path d="M 417.26125 313.41625 
L 417.26125 22.61625 
" style="fill: none; stroke: #000000; stroke-width: 0.8; stroke-linejoin: miter; stroke-linecap: square"/>
   </g>
   <g id="patch_5">
    <path d="M 43.78125 313.41625 
L 417.26125 313.41625 
" style="fill: none; stroke: #000000; stroke-width: 0.8; stroke-linejoin: miter; stroke-linecap: square"/>
   </g>
   <g id="patch_6">
    <path d="M 43.78125 22.61625 
L 417.26125 22.61625 
" style="fill: none; stroke: #000000; stroke-width: 0.8; stroke-linejoin: miter; stroke-linecap: square"/>
   </g>
   <g id="text_15">
    <!-- Curva ROC – XGBoost (classificação binária) -->
    <g transform="translate(98.111563 16.61625) scale(0.12 -0.12)">
     <defs>
      <path id="DejaVuSans-43" d="M 4122 4306 
L 4122 3641 
Q 3803 3938 3442 4084 
Q 3081 4231 2675 4231 
Q 1875 4231 1450 3742 
Q 1025 3253 1025 2328 
Q 1025 1406 1450 917 
Q 1875 428 2675 428 
Q 3081 428 3442 575 
Q 3803 722 4122 1019 
L 4122 359 
Q 3791 134 3420 21 
Q 3050 -91 2638 -91 
Q 1578 -91 968 557 
Q 359 1206 359 2328 
Q 359 3453 968 4101 
Q 1578 4750 2638 4750 
Q 3056 4750 3426 4639 
Q 3797 4528 4122 4306 
z
" transform="scale(0.015625)"/>
      <path id="DejaVuSans-75" d="M 544 1381 
L 544 3500 
L 1119 3500 
L 1119 1403 
Q 1119 906 1312 657 
Q 1506 409 1894 409 
Q 2359 409 2629 706 
Q 2900 1003 2900 1516 
L 2900 3500 
L 3475 3500 
L 3475 0 
L 2900 0 
L 2900 538 
Q 2691 219 2414 64 
Q 2138 -91 1772 -91 
Q 1169 -91 856 284 
Q 544 659 544 1381 
z
M 1991 3584 
L 1991 3584 
z
" transform="scale(0.015625)"/>
      <path id="DejaVuSans-4f" d="M 2522 4238 
Q 1834 4238 1429 3725 
Q 1025 3213 1025 2328 
Q 1025 1447 1429 934 
Q 1834 422 2522 422 
Q 3209 422 3611 934 
Q 4013 1447 4013 2328 
Q 4013 3213 3611 3725 
Q 3209 4238 2522 4238 
z
M 2522 4750 
Q 3503 4750 4090 4092 
Q 4678 3434 4678 2328 
Q 4678 1225 4090 567 
Q 3503 -91 2522 -91 
Q 1538 -91 948 565 
Q 359 1222 359 2328 
Q 359 3434 948 4092 
Q 1538 4750 2522 4750 
z
" transform="scale(0.015625)"/>
      <path id="DejaVuSans-2013" d="M 313 1978 
L 2888 1978 
L 2888 1528 
L 313 1528 
L 313 1978 
z
" transform="scale(0.015625)"/>
      <path id="DejaVuSans-58" d="M 403 4666 
L 1081 4666 
L 2241 2931 
L 3406 4666 
L 4084 4666 
L 2584 2425 
L 4184 0 
L 3506 0 
L 2194 1984 
L 872 0 
L 191 0 
L 1856 2491 
L 403 4666 
z
" transform="scale(0.015625)"/>
      <path id="DejaVuSans-47" d="M 3809 666 
L 3809 1919 
L 2778 1919 
L 2778 2438 
L 4434 2438 
L 4434 434 
Q 4069 175 3628 42 
Q 3188 -91 2688 -91 
Q 1594 -91 976 548 
Q 359 1188 359 2328 
Q 359 3472 976 4111 
Q 1594 4750 2688 4750 
Q 3144 4750 3555 4637 
Q 3966 4525 4313 4306 
L 4313 3634 
Q 3963 3931 3569 4081 
Q 3175 4231 2741 4231 
Q 1884 4231 1454 3753 
Q 1025 3275 1025 2328 
Q 1025 1384 1454 906 
Q 1884 428 2741 428 
Q 3075 428 3337 486 
Q 3600 544 3809 666 
z
" transform="scale(0.015625)"/>
      <path id="DejaVuSans-42" d="M 1259 2228 
L 1259 519 
L 2272 519 
Q 2781 519 3026 730 
Q 3272 941 3272 1375 
Q 3272 1813 3026 2020 
Q 2781 2228 2272 2228 
L 1259 2228 
z
M 1259 4147 
L 1259 2741 
L 2194 2741 
Q 2656 2741 2882 2914 
Q 3109 3088 3109 3444 
Q 3109 3797 2882 3972 
Q 2656 4147 2194 4147 
L 1259 4147 
z
M 628 4666 
L 2241 4666 
Q 2963 4666 3353 4366 
Q 3744 4066 3744 3513 
Q 3744 3084 3544 2831 
Q 3344 2578 2956 2516 
Q 3422 2416 3680 2098 
Q 3938 1781 3938 1306 
Q 3938 681 3513 340 
Q 3088 0 2303 0 
L 628 0 
L 628 4666 
z
" transform="scale(0.015625)"/>
      <path id="DejaVuSans-e7" d="M 3122 3366 
L 3122 2828 
Q 2878 2963 2633 3030 
Q 2388 3097 2138 3097 
Q 1578 3097 1268 2742 
Q 959 2388 959 1747 
Q 959 1106 1268 751 
Q 1578 397 2138 397 
Q 2388 397 2633 464 
Q 2878 531 3122 666 
L 3122 134 
Q 2881 22 2623 -34 
Q 2366 -91 2075 -91 
Q 1284 -91 818 406 
Q 353 903 353 1747 
Q 353 2603 823 3093 
Q 1294 3584 2113 3584 
Q 2378 3584 2631 3529 
Q 2884 3475 3122 3366 
z
M 2311 0 
Q 2482 -194 2566 -358 
Q 2651 -522 2651 -672 
Q 2651 -950 2463 -1092 
Q 2276 -1234 1907 -1234 
Q 1764 -1234 1628 -1215 
Q 1492 -1197 1357 -1159 
L 1357 -750 
Q 1464 -803 1579 -826 
Q 1695 -850 1842 -850 
Q 2026 -850 2120 -775 
Q 2214 -700 2214 -556 
Q 2214 -463 2146 -327 
Q 2079 -191 1939 0 
L 2311 0 
z
" transform="scale(0.015625)"/>
      <path id="DejaVuSans-e3" d="M 2194 1759 
Q 1497 1759 1228 1600 
Q 959 1441 959 1056 
Q 959 750 1161 570 
Q 1363 391 1709 391 
Q 2188 391 2477 730 
Q 2766 1069 2766 1631 
L 2766 1759 
L 2194 1759 
z
M 3341 1997 
L 3341 0 
L 2766 0 
L 2766 531 
Q 2569 213 2275 61 
Q 1981 -91 1556 -91 
Q 1019 -91 701 211 
Q 384 513 384 1019 
Q 384 1609 779 1909 
Q 1175 2209 1959 2209 
L 2766 2209 
L 2766 2266 
Q 2766 2663 2505 2880 
Q 2244 3097 1772 3097 
Q 1472 3097 1187 3025 
Q 903 2953 641 2809 
L 641 3341 
Q 956 3463 1253 3523 
Q 1550 3584 1831 3584 
Q 2591 3584 2966 3190 
Q 3341 2797 3341 1997 
z
M 1844 4281 
L 1665 4453 
Q 1597 4516 1545 4545 
Q 1494 4575 1453 4575 
Q 1334 4575 1278 4461 
Q 1222 4347 1215 4091 
L 825 4091 
Q 831 4513 990 4742 
Q 1150 4972 1434 4972 
Q 1553 4972 1653 4928 
Q 1753 4884 1869 4781 
L 2047 4609 
Q 2115 4547 2167 4517 
Q 2219 4488 2259 4488 
Q 2378 4488 2434 4602 
Q 2490 4716 2497 4972 
L 2887 4972 
Q 2881 4550 2721 4320 
Q 2562 4091 2278 4091 
Q 2159 4091 2059 4134 
Q 1959 4178 1844 4281 
z
" transform="scale(0.015625)"/>
      <path id="DejaVuSans-62" d="M 3116 1747 
Q 3116 2381 2855 2742 
Q 2594 3103 2138 3103 
Q 1681 3103 1420 2742 
Q 1159 2381 1159 1747 
Q 1159 1113 1420 752 
Q 1681 391 2138 391 
Q 2594 391 2855 752 
Q 3116 1113 3116 1747 
z
M 1159 2969 
Q 1341 3281 1617 3432 
Q 1894 3584 2278 3584 
Q 2916 3584 3314 3078 
Q 3713 2572 3713 1747 
Q 3713 922 3314 415 
Q 2916 -91 2278 -91 
Q 1894 -91 1617 61 
Q 1341 213 1159 525 
L 1159 0 
L 581 0 
L 581 4863 
L 1159 4863 
L 1159 2969 
z
" transform="scale(0.015625)"/>
      <path id="DejaVuSans-6e" d="M 3513 2113 
L 3513 0 
L 2938 0 
L 2938 2094 
Q 2938 2591 2744 2837 
Q 2550 3084 2163 3084 
Q 1697 3084 1428 2787 
Q 1159 2491 1159 1978 
L 1159 0 
L 581 0 
L 581 3500 
L 1159 3500 
L 1159 2956 
Q 1366 3272 1645 3428 
Q 1925 3584 2291 3584 
Q 2894 3584 3203 3211 
Q 3513 2838 3513 2113 
z
" transform="scale(0.015625)"/>
      <path id="DejaVuSans-e1" d="M 2194 1759 
Q 1497 1759 1228 1600 
Q 959 1441 959 1056 
Q 959 750 1161 570 
Q 1363 391 1709 391 
Q 2188 391 2477 730 
Q 2766 1069 2766 1631 
L 2766 1759 
L 2194 1759 
z
M 3341 1997 
L 3341 0 
L 2766 0 
L 2766 531 
Q 2569 213 2275 61 
Q 1981 -91 1556 -91 
Q 1019 -91 701 211 
Q 384 513 384 1019 
Q 384 1609 779 1909 
Q 1175 2209 1959 2209 
L 2766 2209 
L 2766 2266 
Q 2766 2663 2505 2880 
Q 2244 3097 1772 3097 
Q 1472 3097 1187 3025 
Q 903 2953 641 2809 
L 641 3341 
Q 956 3463 1253 3523 
Q 1550 3584 1831 3584 
Q 2591 3584 2966 3190 
Q 3341 2797 3341 1997 
z
M 2290 5119 
L 2912 5119 
L 1894 3944 
L 1415 3944 
L 2290 5119 
z
" transform="scale(0.015625)"/>
     </defs>
     <use xlink:href="#DejaVuSans-43"/>
     <use xlink:href="#DejaVuSans-75" transform="translate(69.824219 0)"/>
     <use xlink:href="#DejaVuSans-72" transform="translate(133.203125 0)"/>
     <use xlink:href="#DejaVuSans-76" transform="translate(174.316406 0)"/>
     <use xlink:href="#DejaVuSans-61" transform="translate(233.496094 0)"/>
     <use xlink:href="#DejaVuSans-20" transform="translate(294.775391 0)"/>
     <use xlink:href="#DejaVuSans-52" transform="translate(326.5625 0)"/>
     <use xlink:href="#DejaVuSans-4f" transform="translate(396.044922 0)"/>
     <use xlink:href="#DejaVuSans-43" transform="translate(474.755859 0)"/>
     <use xlink:href="#DejaVuSans-20" transform="translate(544.580078 0)"/>
     <use xlink:href="#DejaVuSans-2013" transform="translate(576.367188 0)"/>
     <use xlink:href="#DejaVuSans-20" transform="translate(626.367188 0)"/>
     <use xlink:href="#DejaVuSans-58" transform="translate(658.154297 0)"/>
     <use xlink:href="#DejaVuSans-47" transform="translate(726.660156 0)"/>
     <use xlink:href="#DejaVuSans-42" transform="translate(804.150391 0)"/>
     <use xlink:href="#DejaVuSans-6f" transform="translate(872.753906 0)"/>
     <use xlink:href="#DejaVuSans-6f" transform="translate(933.935547 0)"/>
     <use xlink:href="#DejaVuSans-73" transform="translate(995.117188 0)"/>
     <use xlink:href="#DejaVuSans-74" transform="translate(1047.216797 0)"/>
     <use xlink:href="#DejaVuSans-20" transform="translate(1086.425781 0)"/>
     <use xlink:href="#DejaVuSans-28" transform="translate(1118.212891 0)"/>
     <use xlink:href="#DejaVuSans-63" transform="translate(1157.226562 0)"/>
     <use xlink:href="#DejaVuSans-6c" transform="translate(1212.207031 0)"/>
     <use xlink:href="#DejaVuSans-61" transform="translate(1239.990234 0)"/>
     <use xlink:href="#DejaVuSans-73" transform="translate(1301.269531 0)"/>
     <use xlink:href="#DejaVuSans-73" transform="translate(1353.369141 0)"/>
     <use xlink:href="#DejaVuSans-69" transform="translate(1405.46875 0)"/>
     <use xlink:href="#DejaVuSans-66" transform="translate(1433.251953 0)"/>
     <use xlink:href="#DejaVuSans-69" transform="translate(1468.457031 0)"/>
     <use xlink:href="#DejaVuSans-63" transform="translate(1496.240234 0)"/>
     <use xlink:href="#DejaVuSans-61" transform="translate(1551.220703 0)"/>
     <use xlink:href="#DejaVuSans-e7" transform="translate(1612.5 0)"/>
     <use xlink:href="#DejaVuSans-e3" transform="translate(1667.480469 0)"/>
     <use xlink:href="#DejaVuSans-6f" transform="translate(1728.759766 0)"/>
     <use xlink:href="#DejaVuSans-20" transform="translate(1789.941406 0)"/>
     <use xlink:href="#DejaVuSans-62" transform="translate(1821.728516 0)"/>
     <use xlink:href="#DejaVuSans-69" transform="translate(1885.205078 0)"/>
     <use xlink:href="#DejaVuSans-6e" transform="translate(1912.988281 0)"/>
     <use xlink:href="#DejaVuSans-e1" transform="translate(1976.367188 0)"/>
     <use xlink:href="#DejaVuSans-72" transform="translate(2037.646484 0)"/>
     <use xlink:href="#DejaVuSans-69" transform="translate(2078.759766 0)"/>
     <use xlink:href="#DejaVuSans-61" transform="translate(2106.542969 0)"/>
     <use xlink:href="#DejaVuSans-29" transform="translate(2167.822266 0)"/>
    </g>
   </g>
   <g id="PathCollection_1">
    <defs>
     <path id="m38b1161ad6" d="M 0 3 
C 0.795609 3 1.55874 2.683901 2.12132 2.12132 
C 2.683901 1.55874 3 0.795609 3 0 
C 3 -0.795609 2.683901 -1.55874 2.12132 -2.12132 
C 1.55874 -2.683901 0.795609 -3 0 -3 
C -0.795609 -3 -1.55874 -2.683901 -2.12132 -2.12132 
C -2.683901 -1.55874 -3 -0.795609 -3 0 
C -3 0.795609 -2.683901 1.55874 -2.12132 2.12132 
C -1.55874 2.683901 -0.795609 3 0 3 
z
" style="stroke: #ff0000"/>
    </defs>
    <g clip-path="url(#p1ed3a41c77)">
     <use xlink:href="#m38b1161ad6" x="79.350874" y="204.628823" style="fill: #ff0000; stroke: #ff0000"/>
    </g>
   </g>
   <g id="legend_1">
    <g id="patch_7">
     <path d="M 175.539375 308.41625 
L 410.26125 308.41625 
Q 412.26125 308.41625 412.26125 306.41625 
L 412.26125 263.381875 
Q 412.26125 261.381875 410.26125 261.381875 
L 175.539375 261.381875 
Q 173.539375 261.381875 173.539375 263.381875 
L 173.539375 306.41625 
Q 173.539375 308.41625 175.539375 308.41625 
z
" style="fill: #ffffff; opacity: 0.8; stroke: #cccccc; stroke-linejoin: miter"/>
    </g>
    <g id="line2d_15">
     <path d="M 177.539375 269.480312 
L 187.539375 269.480312 
L 197.539375 269.480312 
" style="fill: none; stroke: #1f77b4; stroke-width: 2; stroke-linecap: square"/>
    </g>
    <g id="text_16">
     <!-- ROC-AUC = 0.826 -->
     <g transform="translate(205.539375 272.980312) scale(0.1 -0.1)">
      <defs>
       <path id="DejaVuSans-2d" d="M 313 2009 
L 1997 2009 
L 1997 1497 
L 313 1497 
L 313 2009 
z
" transform="scale(0.015625)"/>
       <path id="DejaVuSans-41" d="M 2188 4044 
L 1331 1722 
L 3047 1722 
L 2188 4044 
z
M 1831 4666 
L 2547 4666 
L 4325 0 
L 3669 0 
L 3244 1197 
L 1141 1197 
L 716 0 
L 50 0 
L 1831 4666 
z
" transform="scale(0.015625)"/>
       <path id="DejaVuSans-55" d="M 556 4666 
L 1191 4666 
L 1191 1831 
Q 1191 1081 1462 751 
Q 1734 422 2344 422 
Q 2950 422 3222 751 
Q 3494 1081 3494 1831 
L 3494 4666 
L 4128 4666 
L 4128 1753 
Q 4128 841 3676 375 
Q 3225 -91 2344 -91 
Q 1459 -91 1007 375 
Q 556 841 556 1753 
L 556 4666 
z
" transform="scale(0.015625)"/>
       <path id="DejaVuSans-3d" d="M 678 2906 
L 4684 2906 
L 4684 2381 
L 678 2381 
L 678 2906 
z
M 678 1631 
L 4684 1631 
L 4684 1100 
L 678 1100 
L 678 1631 
z
" transform="scale(0.015625)"/>
      </defs>
      <use xlink:href="#DejaVuSans-52"/>
      <use xlink:href="#DejaVuSans-4f" transform="translate(69.482422 0)"/>
      <use xlink:href="#DejaVuSans-43" transform="translate(148.193359 0)"/>
      <use xlink:href="#DejaVuSans-2d" transform="translate(218.017578 0)"/>
      <use xlink:href="#DejaVuSans-41" transform="translate(251.851562 0)"/>
      <use xlink:href="#DejaVuSans-55" transform="translate(320.259766 0)"/>
      <use xlink:href="#DejaVuSans-43" transform="translate(393.453125 0)"/>
      <use xlink:href="#DejaVuSans-20" transform="translate(463.277344 0)"/>
      <use xlink:href="#DejaVuSans-3d" transform="translate(495.064453 0)"/>
      <use xlink:href="#DejaVuSans-20" transform="translate(578.853516 0)"/>
      <use xlink:href="#DejaVuSans-30" transform="translate(610.640625 0)"/>
      <use xlink:href="#DejaVuSans-2e" transform="translate(674.263672 0)"/>
      <use xlink:href="#DejaVuSans-38" transform="translate(706.050781 0)"/>
      <use xlink:href="#DejaVuSans-32" transform="translate(769.673828 0)"/>
      <use xlink:href="#DejaVuSans-36" transform="translate(833.296875 0)"/>
     </g>
    </g>
    <g id="line2d_16">
     <path d="M 177.539375 284.158437 
L 187.539375 284.158437 
L 197.539375 284.158437 
" style="fill: none; stroke-dasharray: 3.7,1.6; stroke-dashoffset: 0; stroke: #7f7f7f"/>
    </g>
    <g id="text_17">
     <!-- Aleatório -->
     <g transform="translate(205.539375 287.658437) scale(0.1 -0.1)">
      <defs>
       <path id="DejaVuSans-f3" d="M 1959 3097 
Q 1497 3097 1228 2736 
Q 959 2375 959 1747 
Q 959 1119 1226 758 
Q 1494 397 1959 397 
Q 2419 397 2687 759 
Q 2956 1122 2956 1747 
Q 2956 2369 2687 2733 
Q 2419 3097 1959 3097 
z
M 1959 3584 
Q 2709 3584 3137 3096 
Q 3566 2609 3566 1747 
Q 3566 888 3137 398 
Q 2709 -91 1959 -91 
Q 1206 -91 779 398 
Q 353 888 353 1747 
Q 353 2609 779 3096 
Q 1206 3584 1959 3584 
z
M 2394 5119 
L 3016 5119 
L 1998 3944 
L 1519 3944 
L 2394 5119 
z
" transform="scale(0.015625)"/>
      </defs>
      <use xlink:href="#DejaVuSans-41"/>
      <use xlink:href="#DejaVuSans-6c" transform="translate(68.408203 0)"/>
      <use xlink:href="#DejaVuSans-65" transform="translate(96.191406 0)"/>
      <use xlink:href="#DejaVuSans-61" transform="translate(157.714844 0)"/>
      <use xlink:href="#DejaVuSans-74" transform="translate(218.994141 0)"/>
      <use xlink:href="#DejaVuSans-f3" transform="translate(258.203125 0)"/>
      <use xlink:href="#DejaVuSans-72" transform="translate(319.384766 0)"/>
      <use xlink:href="#DejaVuSans-69" transform="translate(360.498047 0)"/>
      <use xlink:href="#DejaVuSans-6f" transform="translate(388.28125 0)"/>
     </g>
    </g>
    <g id="PathCollection_2">
     <g>
      <use xlink:href="#m38b1161ad6" x="187.539375" y="299.711562" style="fill: #ff0000; stroke: #ff0000"/>
     </g>
    </g>
    <g id="text_18">
     <!-- Threshold = 0.80 (FPR=0.05, TPR=0.36) -->
     <g transform="translate(205.539375 302.336562) scale(0.1 -0.1)">
      <defs>
       <path id="DejaVuSans-68" d="M 3513 2113 
L 3513 0 
L 2938 0 
L 2938 2094 
Q 2938 2591 2744 2837 
Q 2550 3084 2163 3084 
Q 1697 3084 1428 2787 
Q 1159 2491 1159 1978 
L 1159 0 
L 581 0 
L 581 4863 
L 1159 4863 
L 1159 2956 
Q 1366 3272 1645 3428 
Q 1925 3584 2291 3584 
Q 2894 3584 3203 3211 
Q 3513 2838 3513 2113 
z
" transform="scale(0.015625)"/>
       <path id="DejaVuSans-35" d="M 691 4666 
L 3169 4666 
L 3169 4134 
L 1269 4134 
L 1269 2991 
Q 1406 3038 1543 3061 
Q 1681 3084 1819 3084 
Q 2600 3084 3056 2656 
Q 3513 2228 3513 1497 
Q 3513 744 3044 326 
Q 2575 -91 1722 -91 
Q 1428 -91 1123 -41 
Q 819 9 494 109 
L 494 744 
Q 775 591 1075 516 
Q 1375 441 1709 441 
Q 2250 441 2565 725 
Q 2881 1009 2881 1497 
Q 2881 1984 2565 2268 
Q 2250 2553 1709 2553 
Q 1456 2553 1204 2497 
Q 953 2441 691 2322 
L 691 4666 
z
" transform="scale(0.015625)"/>
       <path id="DejaVuSans-2c" d="M 750 794 
L 1409 794 
L 1409 256 
L 897 -744 
L 494 -744 
L 750 256 
L 750 794 
z
" transform="scale(0.015625)"/>
       <path id="DejaVuSans-33" d="M 2597 2516 
Q 3050 2419 3304 2112 
Q 3559 1806 3559 1356 
Q 3559 666 3084 287 
Q 2609 -91 1734 -91 
Q 1441 -91 1130 -33 
Q 819 25 488 141 
L 488 750 
Q 750 597 1062 519 
Q 1375 441 1716 441 
Q 2309 441 2620 675 
Q 2931 909 2931 1356 
Q 2931 1769 2642 2001 
Q 2353 2234 1838 2234 
L 1294 2234 
L 1294 2753 
L 1863 2753 
Q 2328 2753 2575 2939 
Q 2822 3125 2822 3475 
Q 2822 3834 2567 4026 
Q 2313 4219 1838 4219 
Q 1578 4219 1281 4162 
Q 984 4106 628 3988 
L 628 4550 
Q 988 4650 1302 4700 
Q 1616 4750 1894 4750 
Q 2613 4750 3031 4423 
Q 3450 4097 3450 3541 
Q 3450 3153 3228 2886 
Q 3006 2619 2597 2516 
z
" transform="scale(0.015625)"/>
      </defs>
      <use xlink:href="#DejaVuSans-54"/>
      <use xlink:href="#DejaVuSans-68" transform="translate(61.083984 0)"/>
      <use xlink:href="#DejaVuSans-72" transform="translate(124.462891 0)"/>
      <use xlink:href="#DejaVuSans-65" transform="translate(163.326172 0)"/>
      <use xlink:href="#DejaVuSans-73" transform="translate(224.849609 0)"/>
      <use xlink:href="#DejaVuSans-68" transform="translate(276.949219 0)"/>
      <use xlink:href="#DejaVuSans-6f" transform="translate(340.328125 0)"/>
      <use xlink:href="#DejaVuSans-6c" transform="translate(401.509766 0)"/>
      <use xlink:href="#DejaVuSans-64" transform="translate(429.292969 0)"/>
      <use xlink:href="#DejaVuSans-20" transform="translate(492.769531 0)"/>
      <use xlink:href="#DejaVuSans-3d" transform="translate(524.556641 0)"/>
      <use xlink:href="#DejaVuSans-20" transform="translate(608.345703 0)"/>
      <use xlink:href="#DejaVuSans-30" transform="translate(640.132812 0)"/>
      <use xlink:href="#DejaVuSans-2e" transform="translate(703.755859 0)"/>
      <use xlink:href="#DejaVuSans-38" transform="translate(735.542969 0)"/>
      <use xlink:href="#DejaVuSans-30" transform="translate(799.166016 0)"/>
      <use xlink:href="#DejaVuSans-20" transform="translate(862.789062 0)"/>
      <use xlink:href="#DejaVuSans-28" transform="translate(894.576172 0)"/>
      <use xlink:href="#DejaVuSans-46" transform="translate(933.589844 0)"/>
      <use xlink:href="#DejaVuSans-50" transform="translate(991.109375 0)"/>
      <use xlink:href="#DejaVuSans-52" transform="translate(1051.412109 0)"/>
      <use xlink:href="#DejaVuSans-3d" transform="translate(1120.894531 0)"/>
      <use xlink:href="#DejaVuSans-30" transform="translate(1204.683594 0)"/>
      <use xlink:href="#DejaVuSans-2e" transform="translate(1268.306641 0)"/>
      <use xlink:href="#DejaVuSans-30" transform="translate(1300.09375 0)"/>
      <use xlink:href="#DejaVuSans-35" transform="translate(1363.716797 0)"/>
      <use xlink:href="#DejaVuSans-2c" transform="translate(1427.339844 0)"/>
      <use xlink:href="#DejaVuSans-20" transform="translate(1459.126953 0)"/>
      <use xlink:href="#DejaVuSans-54" transform="translate(1490.914062 0)"/>
      <use xlink:href="#DejaVuSans-50" transform="translate(1551.998047 0)"/>
      <use xlink:href="#DejaVuSans-52" transform="translate(1612.300781 0)"/>
      <use xlink:href="#DejaVuSans-3d" transform="translate(1681.783203 0)"/>
      <use xlink:href="#DejaVuSans-30" transform="translate(1765.572266 0)"/>
      <use xlink:href="#DejaVuSans-2e" transform="translate(1829.195312 0)"/>
      <use xlink:href="#DejaVuSans-33" transform="translate(1860.982422 0)"/>
      <use xlink:href="#DejaVuSans-36" transform="translate(1924.605469 0)"/>
      <use xlink:href="#DejaVuSans-29" transform="translate(1988.228516 0)"/>
     </g>
    </g>
   </g>
  </g>
 </g>
 <defs>
  <clipPath id="p1ed3a41c77">
   <rect x="43.78125" y="22.61625" width="373.48" height="290.8"/>
  </clipPath>
 </defs>
</svg>
